ISO-10303-21;
HEADER;
FILE_DESCRIPTION (( 'STEP AP214' ),
    '1' );
FILE_NAME ('SMD_BD1.8-L1.8-W1.8.STEP',
    '2025-12-17T03:54:58',
    ( '' ),
    ( '' ),
    'SwSTEP 2.0',
    'SolidWorks 2021',
    '' );
FILE_SCHEMA (( 'AUTOMOTIVE_DESIGN' ));
ENDSEC;

DATA;
#1 = VERTEX_POINT ( 'NONE', #188 ) ;
#2 = DIRECTION ( 'NONE',  ( -1.214306433183764720E-16, -0.000000000000000000, -1.000000000000000000 ) ) ;
#3 = ORIENTED_EDGE ( 'NONE', *, *, #434, .F. ) ;
#4 = VECTOR ( 'NONE', #331, 1000.000000000000000 ) ;
#5 = MECHANICAL_DESIGN_GEOMETRIC_PRESENTATION_REPRESENTATION (  '', ( #301 ), #315 ) ;
#6 = CIRCLE ( 'NONE', #720, 0.4100000000000000866 ) ;
#7 = COLOUR_RGB ( '',0.9686274509803921573, 0.8784313725490195957, 0.5999999999999999778 ) ;
#8 = CARTESIAN_POINT ( 'NONE',  ( -0.4662690130995068016, 0.000000000000000000, 1.600000000000000311 ) ) ;
#9 =( GEOMETRIC_REPRESENTATION_CONTEXT ( 3 ) GLOBAL_UNCERTAINTY_ASSIGNED_CONTEXT ( ( #196 ) ) GLOBAL_UNIT_ASSIGNED_CONTEXT ( ( #464, #793, #575 ) ) REPRESENTATION_CONTEXT ( 'NONE', 'WORKASPACE' ) );
#10 = SPHERICAL_SURFACE ( 'NONE', #926, 0.4000000000000000777 ) ;
#11 =( NAMED_UNIT ( * ) SI_UNIT ( $, .STERADIAN. ) SOLID_ANGLE_UNIT ( ) );
#12 = EDGE_LOOP ( 'NONE', ( #39, #463, #605 ) ) ;
#13 =( NAMED_UNIT ( * ) SI_UNIT ( $, .STERADIAN. ) SOLID_ANGLE_UNIT ( ) );
#14 = PRESENTATION_LAYER_ASSIGNMENT (  '', '', ( #453 ) ) ;
#15 =( LENGTH_UNIT ( ) NAMED_UNIT ( * ) SI_UNIT ( .MILLI., .METRE. ) );
#16 = FACE_BOUND ( 'NONE', #951, .T. ) ;
#17 = AXIS2_PLACEMENT_3D ( 'NONE', #259, #169, #578 ) ;
#18 = SURFACE_STYLE_USAGE ( .BOTH. , #24 ) ;
#19 = DIRECTION ( 'NONE',  ( -1.214306433183764720E-16, -0.000000000000000000, -1.000000000000000000 ) ) ;
#20 = UNCERTAINTY_MEASURE_WITH_UNIT (LENGTH_MEASURE( 1.000000000000000082E-05 ), #185, 'distance_accuracy_value', 'NONE');
#21 = ADVANCED_FACE ( 'NONE', ( #826 ), #269, .T. ) ;
#22 = DIRECTION ( 'NONE',  ( -1.000000000000000000, 0.000000000000000000, 1.214306433183764720E-16 ) ) ;
#23 = SURFACE_SIDE_STYLE ('',( #632 ) ) ;
#24 = SURFACE_SIDE_STYLE ('',( #382 ) ) ;
#25 =( NAMED_UNIT ( * ) PLANE_ANGLE_UNIT ( ) SI_UNIT ( $, .RADIAN. ) );
#26 = AXIS2_PLACEMENT_3D ( 'NONE', #545, #248, #566 ) ;
#27 =( LENGTH_UNIT ( ) NAMED_UNIT ( * ) SI_UNIT ( .MILLI., .METRE. ) );
#28 =( LENGTH_UNIT ( ) NAMED_UNIT ( * ) SI_UNIT ( .MILLI., .METRE. ) );
#29 = ORIENTED_EDGE ( 'NONE', *, *, #377, .F. ) ;
#30 = EDGE_CURVE ( 'NONE', #63, #804, #500, .T. ) ;
#31 = CARTESIAN_POINT ( 'NONE',  ( 0.4662690130995071902, 6.618372950643065272E-17, 1.600000000000000311 ) ) ;
#32 = AXIS2_PLACEMENT_3D ( 'NONE', #347, #833, #582 ) ;
#33 = SURFACE_SIDE_STYLE ('',( #758 ) ) ;
#34 = UNCERTAINTY_MEASURE_WITH_UNIT (LENGTH_MEASURE( 1.000000000000000082E-05 ), #345, 'distance_accuracy_value', 'NONE');
#35 = ADVANCED_FACE ( 'NONE', ( #679, #49 ), #133, .T. ) ;
#36 = VECTOR ( 'NONE', #574, 1000.000000000000000 ) ;
#37 = EDGE_LOOP ( 'NONE', ( #235, #473, #77, #530 ) ) ;
#38 = FILL_AREA_STYLE ('',( #516 ) ) ;
#39 = ORIENTED_EDGE ( 'NONE', *, *, #407, .F. ) ;
#40 = SURFACE_STYLE_USAGE ( .BOTH. , #600 ) ;
#41 = AXIS2_PLACEMENT_3D ( 'NONE', #436, #761, #76 ) ;
#42 = SURFACE_SIDE_STYLE ('',( #275 ) ) ;
#43 = EDGE_LOOP ( 'NONE', ( #703, #556 ) ) ;
#44 = UNCERTAINTY_MEASURE_WITH_UNIT (LENGTH_MEASURE( 1.000000000000000082E-05 ), #975, 'distance_accuracy_value', 'NONE');
#45 = VECTOR ( 'NONE', #925, 1000.000000000000000 ) ;
#46 = ORIENTED_EDGE ( 'NONE', *, *, #1018, .F. ) ;
#47 = FACE_OUTER_BOUND ( 'NONE', #1013, .T. ) ;
#48 = ADVANCED_FACE ( 'NONE', ( #613 ), #69, .F. ) ;
#49 = FACE_OUTER_BOUND ( 'NONE', #371, .T. ) ;
#50 = CARTESIAN_POINT ( 'NONE',  ( 1.547667865328775928E-16, 0.000000000000000000, 1.274528259947514064 ) ) ;
#51 = SURFACE_SIDE_STYLE ('',( #985 ) ) ;
#52 = ORIENTED_EDGE ( 'NONE', *, *, #362, .F. ) ;
#53 = FILL_AREA_STYLE ('',( #791 ) ) ;
#54 = CIRCLE ( 'NONE', #640, 0.9000000000000000222 ) ;
#55 =( GEOMETRIC_REPRESENTATION_CONTEXT ( 3 ) GLOBAL_UNCERTAINTY_ASSIGNED_CONTEXT ( ( #34 ) ) GLOBAL_UNIT_ASSIGNED_CONTEXT ( ( #345, #427, #254 ) ) REPRESENTATION_CONTEXT ( 'NONE', 'WORKASPACE' ) );
#56 = DIRECTION ( 'NONE',  ( -1.214306433183764720E-16, -0.000000000000000000, -1.000000000000000000 ) ) ;
#57 = COLOUR_RGB ( '',0.9686274509803921573, 0.8784313725490195957, 0.5999999999999999778 ) ;
#58 = DIRECTION ( 'NONE',  ( -1.000000000000000000, 0.000000000000000000, 1.214306433183764720E-16 ) ) ;
#59 =( NAMED_UNIT ( * ) SI_UNIT ( $, .STERADIAN. ) SOLID_ANGLE_UNIT ( ) );
#60 =( NAMED_UNIT ( * ) PLANE_ANGLE_UNIT ( ) SI_UNIT ( $, .RADIAN. ) );
#61 = SURFACE_STYLE_USAGE ( .BOTH. , #779 ) ;
#62 = ADVANCED_FACE ( 'NONE', ( #922 ), #546, .T. ) ;
#63 = VERTEX_POINT ( 'NONE', #654 ) ;
#64 = CARTESIAN_POINT ( 'NONE',  ( 1.626303258728256651E-16, 0.000000000000000000, 1.450000000000000178 ) ) ;
#65 = CIRCLE ( 'NONE', #980, 0.6145933147571507327 ) ;
#66 = SURFACE_STYLE_USAGE ( .BOTH. , #776 ) ;
#67 = VERTEX_POINT ( 'NONE', #8 ) ;
#68 =( LENGTH_UNIT ( ) NAMED_UNIT ( * ) SI_UNIT ( .MILLI., .METRE. ) );
#69 = CYLINDRICAL_SURFACE ( 'NONE', #535, 0.4100000000000000866 ) ;
#70 = PRESENTATION_STYLE_ASSIGNMENT (( #61 ) ) ;
#71 = PRESENTATION_LAYER_ASSIGNMENT (  '', '', ( #517 ) ) ;
#72 = EDGE_LOOP ( 'NONE', ( #270, #646 ) ) ;
#73 = EDGE_CURVE ( 'NONE', #341, #294, #506, .T. ) ;
#74 = PRESENTATION_LAYER_ASSIGNMENT (  '', '', ( #118 ) ) ;
#75 = DIRECTION ( 'NONE',  ( -1.000000000000000000, 0.000000000000000000, 1.214306433183764720E-16 ) ) ;
#76 = DIRECTION ( 'NONE',  ( -1.000000000000000000, 0.000000000000000000, 0.000000000000000000 ) ) ;
#77 = ORIENTED_EDGE ( 'NONE', *, *, #696, .T. ) ;
#78 = CARTESIAN_POINT ( 'NONE',  ( -0.6500000000000000222, 0.000000000000000000, 7.892991815694471047E-17 ) ) ;
#79 = SURFACE_STYLE_USAGE ( .BOTH. , #312 ) ;
#80 = CARTESIAN_POINT ( 'NONE',  ( 0.1500000000000001332, 1.836970198721029441E-17, 1.200000000000000178 ) ) ;
#81 = STYLED_ITEM ( 'NONE', ( #905 ), #941 ) ;
#82 = SURFACE_STYLE_FILL_AREA ( #174 ) ;
#83 = ORIENTED_EDGE ( 'NONE', *, *, #1010, .T. ) ;
#84 = DIRECTION ( 'NONE',  ( -1.214306433183764720E-16, -0.000000000000000000, -1.000000000000000000 ) ) ;
#85 = ORIENTED_EDGE ( 'NONE', *, *, #228, .T. ) ;
#86 = CARTESIAN_POINT ( 'NONE',  ( 1.626303258728256651E-16, 0.000000000000000000, 1.450000000000000178 ) ) ;
#87 = COLOUR_RGB ( '',0.9686274509803921573, 0.8784313725490195957, 0.5999999999999999778 ) ;
#88 = AXIS2_PLACEMENT_3D ( 'NONE', #533, #857, #466 ) ;
#89 = SURFACE_STYLE_USAGE ( .BOTH. , #385 ) ;
#90 = FACE_OUTER_BOUND ( 'NONE', #684, .T. ) ;
#91 =( GEOMETRIC_REPRESENTATION_CONTEXT ( 3 ) GLOBAL_UNCERTAINTY_ASSIGNED_CONTEXT ( ( #273 ) ) GLOBAL_UNIT_ASSIGNED_CONTEXT ( ( #380, #158, #635 ) ) REPRESENTATION_CONTEXT ( 'NONE', 'WORKASPACE' ) );
#92 = STYLED_ITEM ( 'NONE', ( #263 ), #134 ) ;
#93 = ADVANCED_FACE ( 'NONE', ( #90 ), #190, .T. ) ;
#94 = LINE ( 'NONE', #78, #4 ) ;
#95 = CARTESIAN_POINT ( 'NONE',  ( 0.3999999999999999667, 4.898587196589412459E-17, -4.857225732735058015E-17 ) ) ;
#96 = DIRECTION ( 'NONE',  ( -1.224646799147353207E-16, 1.000000000000000000, 1.487096486582536912E-32 ) ) ;
#97 = UNCERTAINTY_MEASURE_WITH_UNIT (LENGTH_MEASURE( 1.000000000000000082E-05 ), #834, 'distance_accuracy_value', 'NONE');
#98 = DIRECTION ( 'NONE',  ( -1.000000000000000000, 0.000000000000000000, 0.000000000000000000 ) ) ;
#99 = CIRCLE ( 'NONE', #234, 0.3999999999999999667 ) ;
#100 =( NAMED_UNIT ( * ) SI_UNIT ( $, .STERADIAN. ) SOLID_ANGLE_UNIT ( ) );
#101 = ADVANCED_FACE ( 'NONE', ( #945 ), #879, .T. ) ;
#102 = EDGE_LOOP ( 'NONE', ( #423, #548, #29, #52 ) ) ;
#103 = CARTESIAN_POINT ( 'NONE',  ( 1.722764978462720972E-16, 0.000000000000000000, 1.418723422180873550 ) ) ;
#104 =( NAMED_UNIT ( * ) PLANE_ANGLE_UNIT ( ) SI_UNIT ( $, .RADIAN. ) );
#105 = CIRCLE ( 'NONE', #650, 0.4000000000000001887 ) ;
#106 = EDGE_CURVE ( 'NONE', #798, #760, #666, .T. ) ;
#107 = CIRCLE ( 'NONE', #633, 0.4662690130995070237 ) ;
#108 = LINE ( 'NONE', #592, #561 ) ;
#109 = MECHANICAL_DESIGN_GEOMETRIC_PRESENTATION_REPRESENTATION (  '', ( #731 ), #344 ) ;
#110 = CYLINDRICAL_SURFACE ( 'NONE', #810, 0.3999999999999999667 ) ;
#111 = VERTEX_POINT ( 'NONE', #841 ) ;
#112 = UNCERTAINTY_MEASURE_WITH_UNIT (LENGTH_MEASURE( 1.000000000000000082E-05 ), #68, 'distance_accuracy_value', 'NONE');
#113 = UNCERTAINTY_MEASURE_WITH_UNIT (LENGTH_MEASURE( 1.000000000000000082E-05 ), #431, 'distance_accuracy_value', 'NONE');
#114 = ORIENTED_EDGE ( 'NONE', *, *, #898, .F. ) ;
#115 = CARTESIAN_POINT ( 'NONE',  ( 1.942890293094023699E-16, 0.000000000000000000, 1.600000000000000089 ) ) ;
#116 = CONICAL_SURFACE ( 'NONE', #410, 0.7999999999999999334, 0.7853981633974498333 ) ;
#117 = DIRECTION ( 'NONE',  ( -1.214306433183764720E-16, -0.000000000000000000, -1.000000000000000000 ) ) ;
#118 = STYLED_ITEM ( 'NONE', ( #809 ), #668 ) ;
#119 = EDGE_CURVE ( 'NONE', #713, #67, #305, .T. ) ;
#120 = ORIENTED_EDGE ( 'NONE', *, *, #567, .T. ) ;
#121 = CARTESIAN_POINT ( 'NONE',  ( 0.9000000000000000222, 0.000000000000000000, 0.09999999999999964473 ) ) ;
#122 =( NAMED_UNIT ( * ) PLANE_ANGLE_UNIT ( ) SI_UNIT ( $, .RADIAN. ) );
#123 = ORIENTED_EDGE ( 'NONE', *, *, #289, .F. ) ;
#124 = CARTESIAN_POINT ( 'NONE',  ( 2.265596578422603100E-16, 0.000000000000000000, 1.849999999999999645 ) ) ;
#125 =( NAMED_UNIT ( * ) SI_UNIT ( $, .STERADIAN. ) SOLID_ANGLE_UNIT ( ) );
#126 = ORIENTED_EDGE ( 'NONE', *, *, #194, .T. ) ;
#127 =( LENGTH_UNIT ( ) NAMED_UNIT ( * ) SI_UNIT ( .MILLI., .METRE. ) );
#128 =( NAMED_UNIT ( * ) PLANE_ANGLE_UNIT ( ) SI_UNIT ( $, .RADIAN. ) );
#129 =( NAMED_UNIT ( * ) SI_UNIT ( $, .STERADIAN. ) SOLID_ANGLE_UNIT ( ) );
#130 = CARTESIAN_POINT ( 'NONE',  ( 1.214306433183761731E-17, 0.000000000000000000, 0.09999999999999974187 ) ) ;
#131 = ORIENTED_EDGE ( 'NONE', *, *, #683, .F. ) ;
#132 = CARTESIAN_POINT ( 'NONE',  ( 0.4000000000000001887, 4.898587196589412459E-17, 1.849999999999999645 ) ) ;
#133 = PLANE ( 'NONE',  #88 ) ;
#134 = ADVANCED_FACE ( 'NONE', ( #261 ), #110, .T. ) ;
#135 = AXIS2_PLACEMENT_3D ( 'NONE', #876, #797, #813 ) ;
#136 =( GEOMETRIC_REPRESENTATION_CONTEXT ( 3 ) GLOBAL_UNCERTAINTY_ASSIGNED_CONTEXT ( ( #511 ) ) GLOBAL_UNIT_ASSIGNED_CONTEXT ( ( #127, #213, #368 ) ) REPRESENTATION_CONTEXT ( 'NONE', 'WORKASPACE' ) );
#137 = FILL_AREA_STYLE ('',( #547 ) ) ;
#138 = COLOUR_RGB ( '',0.9686274509803921573, 0.8784313725490195957, 0.5999999999999999778 ) ;
#139 =( GEOMETRIC_REPRESENTATION_CONTEXT ( 3 ) GLOBAL_UNCERTAINTY_ASSIGNED_CONTEXT ( ( #488 ) ) GLOBAL_UNIT_ASSIGNED_CONTEXT ( ( #867, #701, #706 ) ) REPRESENTATION_CONTEXT ( 'NONE', 'WORKASPACE' ) );
#140 = VERTEX_POINT ( 'NONE', #966 ) ;
#141 = SURFACE_STYLE_FILL_AREA ( #754 ) ;
#142 = AXIS2_PLACEMENT_3D ( 'NONE', #952, #565, #395 ) ;
#143 = FACE_OUTER_BOUND ( 'NONE', #624, .T. ) ;
#144 = COLOUR_RGB ( '',0.9686274509803921573, 0.8784313725490195957, 0.5999999999999999778 ) ;
#145 = EDGE_LOOP ( 'NONE', ( #357, #986, #309, #651 ) ) ;
#146 = MECHANICAL_DESIGN_GEOMETRIC_PRESENTATION_REPRESENTATION (  '', ( #416 ), #618 ) ;
#147 = DIRECTION ( 'NONE',  ( -1.000000000000000000, 0.000000000000000000, 0.000000000000000000 ) ) ;
#148 = MECHANICAL_DESIGN_GEOMETRIC_PRESENTATION_REPRESENTATION (  '', ( #81 ), #420 ) ;
#149 = DIRECTION ( 'NONE',  ( -1.000000000000000000, 0.000000000000000000, 1.204669080539449344E-16 ) ) ;
#150 = ORIENTED_EDGE ( 'NONE', *, *, #711, .F. ) ;
#151 = SURFACE_STYLE_USAGE ( .BOTH. , #543 ) ;
#152 = CARTESIAN_POINT ( 'NONE',  ( 0.4662690130995070792, 5.710148544339064597E-17, 1.450000000000000178 ) ) ;
#153 = FILL_AREA_STYLE_COLOUR ( '', #7 ) ;
#154 = STYLED_ITEM ( 'NONE', ( #921 ), #579 ) ;
#155 = ORIENTED_EDGE ( 'NONE', *, *, #738, .T. ) ;
#156 = PRESENTATION_STYLE_ASSIGNMENT (( #151 ) ) ;
#157 = ORIENTED_EDGE ( 'NONE', *, *, #276, .F. ) ;
#158 =( NAMED_UNIT ( * ) PLANE_ANGLE_UNIT ( ) SI_UNIT ( $, .RADIAN. ) );
#159 = CONICAL_SURFACE ( 'NONE', #742, 0.7999999999999999334, 0.7853981633974498333 ) ;
#160 = DIRECTION ( 'NONE',  ( -1.214306433183764720E-16, -0.000000000000000000, -1.000000000000000000 ) ) ;
#161 = PRESENTATION_LAYER_ASSIGNMENT (  '', '', ( #440 ) ) ;
#162 = ORIENTED_EDGE ( 'NONE', *, *, #992, .F. ) ;
#163 = DIRECTION ( 'NONE',  ( -1.214306433183764720E-16, -0.000000000000000000, -1.000000000000000000 ) ) ;
#164 = CARTESIAN_POINT ( 'NONE',  ( 0.000000000000000000, 0.000000000000000000, 0.000000000000000000 ) ) ;
#165 = DIRECTION ( 'NONE',  ( -1.214306433183764720E-16, -0.000000000000000000, -1.000000000000000000 ) ) ;
#166 =( NAMED_UNIT ( * ) PLANE_ANGLE_UNIT ( ) SI_UNIT ( $, .RADIAN. ) );
#167 = ADVANCED_FACE ( 'NONE', ( #589 ), #576, .T. ) ;
#168 = CARTESIAN_POINT ( 'NONE',  ( 2.265596578422603100E-16, 0.000000000000000000, 1.849999999999999645 ) ) ;
#169 = DIRECTION ( 'NONE',  ( -1.214306433183764720E-16, -0.000000000000000000, -1.000000000000000000 ) ) ;
#170 = CIRCLE ( 'NONE', #216, 0.9000000000000000222 ) ;
#171 =( GEOMETRIC_REPRESENTATION_CONTEXT ( 3 ) GLOBAL_UNCERTAINTY_ASSIGNED_CONTEXT ( ( #961 ) ) GLOBAL_UNIT_ASSIGNED_CONTEXT ( ( #461, #128, #539 ) ) REPRESENTATION_CONTEXT ( 'NONE', 'WORKASPACE' ) );
#172 = DIRECTION ( 'NONE',  ( -1.000000000000000000, 0.000000000000000000, 1.214306433183764720E-16 ) ) ;
#173 = FILL_AREA_STYLE ('',( #238 ) ) ;
#174 = FILL_AREA_STYLE ('',( #435 ) ) ;
#175 = VECTOR ( 'NONE', #408, 1000.000000000000227 ) ;
#176 = CARTESIAN_POINT ( 'NONE',  ( 1.942890293094023699E-16, 0.000000000000000000, 1.600000000000000089 ) ) ;
#177 = VECTOR ( 'NONE', #498, 1000.000000000000000 ) ;
#178 =( GEOMETRIC_REPRESENTATION_CONTEXT ( 3 ) GLOBAL_UNCERTAINTY_ASSIGNED_CONTEXT ( ( #598 ) ) GLOBAL_UNIT_ASSIGNED_CONTEXT ( ( #824, #104, #983 ) ) REPRESENTATION_CONTEXT ( 'NONE', 'WORKASPACE' ) );
#179 = EDGE_CURVE ( 'NONE', #413, #877, #105, .T. ) ;
#180 = FILL_AREA_STYLE ('',( #665 ) ) ;
#181 = VERTEX_POINT ( 'NONE', #121 ) ;
#182 = CARTESIAN_POINT ( 'NONE',  ( 0.7999999999999999334, 0.000000000000000000, -9.942133921692068264E-17 ) ) ;
#183 = CIRCLE ( 'NONE', #26, 0.4000000000000000777 ) ;
#184 = PRESENTATION_LAYER_ASSIGNMENT (  '', '', ( #154 ) ) ;
#185 =( LENGTH_UNIT ( ) NAMED_UNIT ( * ) SI_UNIT ( .MILLI., .METRE. ) );
#186 = CARTESIAN_POINT ( 'NONE',  ( -0.1499999999999998557, 0.000000000000000000, 1.200000000000000178 ) ) ;
#187 =( GEOMETRIC_REPRESENTATION_CONTEXT ( 3 ) GLOBAL_UNCERTAINTY_ASSIGNED_CONTEXT ( ( #736 ) ) GLOBAL_UNIT_ASSIGNED_CONTEXT ( ( #1005, #215, #59 ) ) REPRESENTATION_CONTEXT ( 'NONE', 'WORKASPACE' ) );
#188 = CARTESIAN_POINT ( 'NONE',  ( 0.6500000000000000222, 7.960204194457795477E-17, 0.4000000000000000222 ) ) ;
#189 = CARTESIAN_POINT ( 'NONE',  ( -0.3999999999999998557, 0.000000000000000000, 1.418723422180873550 ) ) ;
#190 = TOROIDAL_SURFACE ( 'NONE', #323, 0.1499999999999999944, 0.5000000000000000000 ) ;
#191 = SURFACE_STYLE_FILL_AREA ( #415 ) ;
#192 = ORIENTED_EDGE ( 'NONE', *, *, #885, .T. ) ;
#193 = COLOUR_RGB ( '',0.9686274509803921573, 0.8784313725490195957, 0.5999999999999999778 ) ;
#194 = EDGE_CURVE ( 'NONE', #804, #63, #242, .T. ) ;
#195 = DIRECTION ( 'NONE',  ( -1.000000000000000000, 0.000000000000000000, 0.000000000000000000 ) ) ;
#196 = UNCERTAINTY_MEASURE_WITH_UNIT (LENGTH_MEASURE( 1.000000000000000082E-05 ), #464, 'distance_accuracy_value', 'NONE');
#197 = PRESENTATION_STYLE_ASSIGNMENT (( #910 ) ) ;
#198 = COLOUR_RGB ( '',0.9686274509803921573, 0.8784313725490195957, 0.5999999999999999778 ) ;
#199 = DIRECTION ( 'NONE',  ( -1.000000000000000000, 0.000000000000000000, 0.000000000000000000 ) ) ;
#200 = SPHERICAL_SURFACE ( 'NONE', #685, 0.4000000000000000777 ) ;
#201 = DIRECTION ( 'NONE',  ( 0.000000000000000000, -1.000000000000000000, 0.000000000000000000 ) ) ;
#202 = SURFACE_STYLE_USAGE ( .BOTH. , #449 ) ;
#203 = CARTESIAN_POINT ( 'NONE',  ( -0.6499999999999999112, 0.000000000000000000, 1.200000000000000178 ) ) ;
#204 = MECHANICAL_DESIGN_GEOMETRIC_PRESENTATION_REPRESENTATION (  '', ( #950 ), #782 ) ;
#205 = EDGE_CURVE ( 'NONE', #913, #181, #170, .T. ) ;
#206 = AXIS2_PLACEMENT_3D ( 'NONE', #186, #495, #819 ) ;
#207 = CARTESIAN_POINT ( 'NONE',  ( -0.8899999999999999023, 0.000000000000000000, 0.4000000000000001332 ) ) ;
#208 = FILL_AREA_STYLE ('',( #153 ) ) ;
#209 = LINE ( 'NONE', #287, #577 ) ;
#210 = CARTESIAN_POINT ( 'NONE',  ( 0.9000000000000000222, 1.102182119232617788E-16, 0.3899999999999999023 ) ) ;
#211 = ORIENTED_EDGE ( 'NONE', *, *, #228, .F. ) ;
#212 = LINE ( 'NONE', #996, #596 ) ;
#213 =( NAMED_UNIT ( * ) PLANE_ANGLE_UNIT ( ) SI_UNIT ( $, .RADIAN. ) );
#214 = ADVANCED_FACE ( 'NONE', ( #472 ), #10, .T. ) ;
#215 =( NAMED_UNIT ( * ) PLANE_ANGLE_UNIT ( ) SI_UNIT ( $, .RADIAN. ) );
#216 = AXIS2_PLACEMENT_3D ( 'NONE', #807, #563, #883 ) ;
#217 = DIRECTION ( 'NONE',  ( -1.214306433183764720E-16, -0.000000000000000000, -1.000000000000000000 ) ) ;
#218 = MECHANICAL_DESIGN_GEOMETRIC_PRESENTATION_REPRESENTATION (  '', ( #320 ), #171 ) ;
#219 = ORIENTED_EDGE ( 'NONE', *, *, #992, .T. ) ;
#220 = PRESENTATION_LAYER_ASSIGNMENT (  '', '', ( #271 ) ) ;
#221 = FILL_AREA_STYLE ('',( #460 ) ) ;
#222 = PRESENTATION_LAYER_ASSIGNMENT (  '', '', ( #92 ) ) ;
#223 = SURFACE_STYLE_USAGE ( .BOTH. , #23 ) ;
#224 = EDGE_LOOP ( 'NONE', ( #324, #241, #365, #383 ) ) ;
#225 = FILL_AREA_STYLE_COLOUR ( '', #995 ) ;
#226 = CIRCLE ( 'NONE', #206, 0.5000000000000000000 ) ;
#227 = FACE_OUTER_BOUND ( 'NONE', #284, .T. ) ;
#228 = EDGE_CURVE ( 'NONE', #936, #303, #239, .T. ) ;
#229 = ORIENTED_EDGE ( 'NONE', *, *, #30, .F. ) ;
#230 = CARTESIAN_POINT ( 'NONE',  ( 1.787894371768936369E-16, 0.000000000000000000, 1.472358477984254232 ) ) ;
#231 = CARTESIAN_POINT ( 'NONE',  ( 4.857225732735059248E-17, 0.000000000000000000, 0.4000000000000000222 ) ) ;
#232 = COLOUR_RGB ( '',0.9686274509803921573, 0.8784313725490195957, 0.5999999999999999778 ) ;
#233 =( NAMED_UNIT ( * ) SI_UNIT ( $, .STERADIAN. ) SOLID_ANGLE_UNIT ( ) );
#234 = AXIS2_PLACEMENT_3D ( 'NONE', #519, #616, #1004 ) ;
#235 = ORIENTED_EDGE ( 'NONE', *, *, #930, .F. ) ;
#236 =( GEOMETRIC_REPRESENTATION_CONTEXT ( 3 ) GLOBAL_UNCERTAINTY_ASSIGNED_CONTEXT ( ( #513 ) ) GLOBAL_UNIT_ASSIGNED_CONTEXT ( ( #27, #25, #13 ) ) REPRESENTATION_CONTEXT ( 'NONE', 'WORKASPACE' ) );
#237 = CARTESIAN_POINT ( 'NONE',  ( 4.735795089416682258E-17, 0.000000000000000000, 0.3900000000000000133 ) ) ;
#238 = FILL_AREA_STYLE_COLOUR ( '', #726 ) ;
#239 = LINE ( 'NONE', #1019, #482 ) ;
#240 = MECHANICAL_DESIGN_GEOMETRIC_PRESENTATION_REPRESENTATION (  '', ( #274 ), #899 ) ;
#241 = ORIENTED_EDGE ( 'NONE', *, *, #830, .T. ) ;
#242 = CIRCLE ( 'NONE', #41, 0.4100000000000000311 ) ;
#243 = MECHANICAL_DESIGN_GEOMETRIC_PRESENTATION_REPRESENTATION (  '', ( #919 ), #1003 ) ;
#244 = EDGE_CURVE ( 'NONE', #111, #780, #649, .T. ) ;
#245 =( LENGTH_UNIT ( ) NAMED_UNIT ( * ) SI_UNIT ( .MILLI., .METRE. ) );
#246 = ORIENTED_EDGE ( 'NONE', *, *, #738, .F. ) ;
#247 = DIRECTION ( 'NONE',  ( -1.214306433183764720E-16, -0.000000000000000000, -1.000000000000000000 ) ) ;
#248 = DIRECTION ( 'NONE',  ( -1.224646799147353207E-16, 1.000000000000000000, 1.487096486582536912E-32 ) ) ;
#249 =( NAMED_UNIT ( * ) SI_UNIT ( $, .STERADIAN. ) SOLID_ANGLE_UNIT ( ) );
#250 = DIRECTION ( 'NONE',  ( -0.7071067811865476838, 0.000000000000000000, -0.7071067811865474617 ) ) ;
#251 = SURFACE_SIDE_STYLE ('',( #585 ) ) ;
#252 = AXIS2_PLACEMENT_3D ( 'NONE', #689, #603, #840 ) ;
#253 = PRESENTATION_LAYER_ASSIGNMENT (  '', '', ( #928 ) ) ;
#254 =( NAMED_UNIT ( * ) SI_UNIT ( $, .STERADIAN. ) SOLID_ANGLE_UNIT ( ) );
#255 = AXIS2_PLACEMENT_3D ( 'NONE', #86, #247, #963 ) ;
#256 = SURFACE_STYLE_USAGE ( .BOTH. , #803 ) ;
#257 = EDGE_CURVE ( 'NONE', #994, #709, #967, .T. ) ;
#259 = CARTESIAN_POINT ( 'NONE',  ( 4.857225732735059864E-17, 0.000000000000000000, 0.4000000000000000777 ) ) ;
#258 = PRODUCT_DEFINITION_SHAPE ( 'NONE', 'NONE',  #338 ) ;
#260 = PRESENTATION_STYLE_ASSIGNMENT (( #891 ) ) ;
#261 = FACE_OUTER_BOUND ( 'NONE', #298, .T. ) ;
#262 =( LENGTH_UNIT ( ) NAMED_UNIT ( * ) SI_UNIT ( .MILLI., .METRE. ) );
#263 = PRESENTATION_STYLE_ASSIGNMENT (( #974 ) ) ;
#264 = DIRECTION ( 'NONE',  ( -1.214306433183764720E-16, -0.000000000000000000, -1.000000000000000000 ) ) ;
#265 = MECHANICAL_DESIGN_GEOMETRIC_PRESENTATION_REPRESENTATION (  '', ( #154 ), #870 ) ;
#266 = CARTESIAN_POINT ( 'NONE',  ( 0.000000000000000000, 0.000000000000000000, 0.000000000000000000 ) ) ;
#267 = PRESENTATION_LAYER_ASSIGNMENT (  '', '', ( #663 ) ) ;
#268 = SURFACE_SIDE_STYLE ('',( #191 ) ) ;
#269 = CONICAL_SURFACE ( 'NONE', #396, 0.9000000000000000222, 0.7853981633974482790 ) ;
#270 = ORIENTED_EDGE ( 'NONE', *, *, #587, .T. ) ;
#271 = STYLED_ITEM ( 'NONE', ( #664 ), #637 ) ;
#272 = CARTESIAN_POINT ( 'NONE',  ( 0.6444143388588117194, 7.926001884269404230E-17, 1.274528259947514064 ) ) ;
#273 = UNCERTAINTY_MEASURE_WITH_UNIT (LENGTH_MEASURE( 1.000000000000000082E-05 ), #380, 'distance_accuracy_value', 'NONE');
#274 = STYLED_ITEM ( 'NONE', ( #332 ), #93 ) ;
#275 = SURFACE_STYLE_FILL_AREA ( #747 ) ;
#276 = EDGE_CURVE ( 'NONE', #67, #564, #750, .T. ) ;
#277 = SURFACE_STYLE_USAGE ( .BOTH. , #33 ) ;
#278 = DIRECTION ( 'NONE',  ( 1.000000000000000000, 0.000000000000000000, -1.214306433183764720E-16 ) ) ;
#279 = AXIS2_PLACEMENT_3D ( 'NONE', #50, #991, #1000 ) ;
#280 = ORIENTED_EDGE ( 'NONE', *, *, #863, .T. ) ;
#281 = CARTESIAN_POINT ( 'NONE',  ( -1.382381356566989155E-34, 0.000000000000000000, -1.138412281109762708E-18 ) ) ;
#282 = PRODUCT_DEFINITION_CONTEXT ( 'detailed design', #644, 'design' ) ;
#283 = FACE_OUTER_BOUND ( 'NONE', #37, .T. ) ;
#284 = EDGE_LOOP ( 'NONE', ( #155, #740, #560, #748 ) ) ;
#285 = DIRECTION ( 'NONE',  ( -1.000000000000000000, 0.000000000000000000, 1.214306433183764720E-16 ) ) ;
#286 = CARTESIAN_POINT ( 'NONE',  ( -0.3999999999999999667, 0.000000000000000000, 4.857225732735058015E-17 ) ) ;
#287 = CARTESIAN_POINT ( 'NONE',  ( 0.4100000000000000866, 5.021051876504149357E-17, -4.978656376053436238E-17 ) ) ;
#288 = DIRECTION ( 'NONE',  ( 1.214306433183764720E-16, 0.000000000000000000, 1.000000000000000000 ) ) ;
#289 = EDGE_CURVE ( 'NONE', #760, #433, #532, .T. ) ;
#290 = LINE ( 'NONE', #920, #1006 ) ;
#291 = FACE_OUTER_BOUND ( 'NONE', #505, .T. ) ;
#292 = DIRECTION ( 'NONE',  ( -1.000000000000000000, 0.000000000000000000, 1.204669080539449344E-16 ) ) ;
#293 = PRESENTATION_LAYER_ASSIGNMENT (  '', '', ( #950 ) ) ;
#294 = VERTEX_POINT ( 'NONE', #322 ) ;
#295 = DIRECTION ( 'NONE',  ( -1.214306433183764720E-16, -0.000000000000000000, -1.000000000000000000 ) ) ;
#296 =( GEOMETRIC_REPRESENTATION_CONTEXT ( 3 ) GLOBAL_UNCERTAINTY_ASSIGNED_CONTEXT ( ( #751 ) ) GLOBAL_UNIT_ASSIGNED_CONTEXT ( ( #456, #166, #11 ) ) REPRESENTATION_CONTEXT ( 'NONE', 'WORKASPACE' ) );
#297 = CARTESIAN_POINT ( 'NONE',  ( 1.457167719820517713E-16, 0.000000000000000000, 1.200000000000000178 ) ) ;
#298 = EDGE_LOOP ( 'NONE', ( #716, #821, #150, #46 ) ) ;
#299 = SURFACE_STYLE_USAGE ( .BOTH. , #1009 ) ;
#300 = FILL_AREA_STYLE_COLOUR ( '', #57 ) ;
#301 = STYLED_ITEM ( 'NONE', ( #655 ), #307 ) ;
#302 =( GEOMETRIC_REPRESENTATION_CONTEXT ( 3 ) GLOBAL_UNCERTAINTY_ASSIGNED_CONTEXT ( ( #97 ) ) GLOBAL_UNIT_ASSIGNED_CONTEXT ( ( #834, #583, #977 ) ) REPRESENTATION_CONTEXT ( 'NONE', 'WORKASPACE' ) );
#303 = VERTEX_POINT ( 'NONE', #329 ) ;
#304 = STYLED_ITEM ( 'NONE', ( #156 ), #631 ) ;
#305 = CIRCLE ( 'NONE', #573, 0.4662690130995070237 ) ;
#306 = SURFACE_STYLE_USAGE ( .BOTH. , #526 ) ;
#307 = ADVANCED_FACE ( 'NONE', ( #712 ), #398, .F. ) ;
#308 =( NAMED_UNIT ( * ) PLANE_ANGLE_UNIT ( ) SI_UNIT ( $, .RADIAN. ) );
#309 = ORIENTED_EDGE ( 'NONE', *, *, #205, .T. ) ;
#310 = COLOUR_RGB ( '',1.000000000000000000, 1.000000000000000000, 1.000000000000000000 ) ;
#311 = DIRECTION ( 'NONE',  ( -1.214306433183764720E-16, -0.000000000000000000, -1.000000000000000000 ) ) ;
#312 = SURFACE_SIDE_STYLE ('',( #477 ) ) ;
#313 = ORIENTED_EDGE ( 'NONE', *, *, #119, .T. ) ;
#314 = DIRECTION ( 'NONE',  ( -1.000000000000000000, 0.000000000000000000, 1.218204688185960063E-16 ) ) ;
#315 =( GEOMETRIC_REPRESENTATION_CONTEXT ( 3 ) GLOBAL_UNCERTAINTY_ASSIGNED_CONTEXT ( ( #342 ) ) GLOBAL_UNIT_ASSIGNED_CONTEXT ( ( #245, #939, #405 ) ) REPRESENTATION_CONTEXT ( 'NONE', 'WORKASPACE' ) );
#316 = AXIS2_PLACEMENT_3D ( 'NONE', #80, #96, #387 ) ;
#317 = ORIENTED_EDGE ( 'NONE', *, *, #567, .F. ) ;
#318 = FACE_OUTER_BOUND ( 'NONE', #425, .T. ) ;
#319 = EDGE_CURVE ( 'NONE', #140, #804, #880, .T. ) ;
#320 = STYLED_ITEM ( 'NONE', ( #455 ), #35 ) ;
#321 = FILL_AREA_STYLE_COLOUR ( '', #591 ) ;
#322 = CARTESIAN_POINT ( 'NONE',  ( 0.7999999999999999334, 0.000000000000000000, -9.942133921692068264E-17 ) ) ;
#323 = AXIS2_PLACEMENT_3D ( 'NONE', #480, #160, #718 ) ;
#324 = ORIENTED_EDGE ( 'NONE', *, *, #769, .F. ) ;
#325 = FILL_AREA_STYLE ('',( #487 ) ) ;
#326 = AXIS2_PLACEMENT_3D ( 'NONE', #988, #915, #285 ) ;
#327 = CONICAL_SURFACE ( 'NONE', #902, 0.6444143388588116084, 0.1496140649059592431 ) ;
#328 =( NAMED_UNIT ( * ) SI_UNIT ( $, .STERADIAN. ) SOLID_ANGLE_UNIT ( ) );
#329 = CARTESIAN_POINT ( 'NONE',  ( -0.9000000000000000222, 0.000000000000000000, 0.3900000000000001243 ) ) ;
#330 = DIRECTION ( 'NONE',  ( -1.000000000000000000, 0.000000000000000000, 1.218204688185960063E-16 ) ) ;
#331 = DIRECTION ( 'NONE',  ( -1.214306433183764720E-16, -0.000000000000000000, -1.000000000000000000 ) ) ;
#332 = PRESENTATION_STYLE_ASSIGNMENT (( #79 ) ) ;
#333 = DIRECTION ( 'NONE',  ( 0.000000000000000000, 1.000000000000000000, -0.000000000000000000 ) ) ;
#334 = UNCERTAINTY_MEASURE_WITH_UNIT (LENGTH_MEASURE( 1.000000000000000082E-05 ), #508, 'distance_accuracy_value', 'NONE');
#335 = CIRCLE ( 'NONE', #252, 0.6500000000000000222 ) ;
#336 = CARTESIAN_POINT ( 'NONE',  ( -2.764762713133978310E-34, 0.000000000000000000, -2.276824562219525415E-18 ) ) ;
#337 = DIRECTION ( 'NONE',  ( -1.000000000000000000, 0.000000000000000000, 1.214306433183764720E-16 ) ) ;
#338 = PRODUCT_DEFINITION ( '未知', '', #789, #282 ) ;
#339 = FILL_AREA_STYLE_COLOUR ( '', #430 ) ;
#340 = COLOUR_RGB ( '',0.9686274509803921573, 0.8784313725490195957, 0.5999999999999999778 ) ;
#341 = VERTEX_POINT ( 'NONE', #805 ) ;
#342 = UNCERTAINTY_MEASURE_WITH_UNIT (LENGTH_MEASURE( 1.000000000000000082E-05 ), #245, 'distance_accuracy_value', 'NONE');
#343 =( LENGTH_UNIT ( ) NAMED_UNIT ( * ) SI_UNIT ( .MILLI., .METRE. ) );
#344 =( GEOMETRIC_REPRESENTATION_CONTEXT ( 3 ) GLOBAL_UNCERTAINTY_ASSIGNED_CONTEXT ( ( #979 ) ) GLOBAL_UNIT_ASSIGNED_CONTEXT ( ( #764, #60, #129 ) ) REPRESENTATION_CONTEXT ( 'NONE', 'WORKASPACE' ) );
#345 =( LENGTH_UNIT ( ) NAMED_UNIT ( * ) SI_UNIT ( .MILLI., .METRE. ) );
#346 = DIRECTION ( 'NONE',  ( -1.000000000000000000, 0.000000000000000000, 0.000000000000000000 ) ) ;
#347 = CARTESIAN_POINT ( 'NONE',  ( 0.000000000000000000, 0.000000000000000000, 0.000000000000000000 ) ) ;
#348 = ORIENTED_EDGE ( 'NONE', *, *, #711, .T. ) ;
#349 = LINE ( 'NONE', #95, #370 ) ;
#350 = EDGE_CURVE ( 'NONE', #303, #780, #54, .T. ) ;
#351 =( GEOMETRIC_REPRESENTATION_CONTEXT ( 3 ) GLOBAL_UNCERTAINTY_ASSIGNED_CONTEXT ( ( #749 ) ) GLOBAL_UNIT_ASSIGNED_CONTEXT ( ( #559, #953, #233 ) ) REPRESENTATION_CONTEXT ( 'NONE', 'WORKASPACE' ) );
#352 = FILL_AREA_STYLE_COLOUR ( '', #774 ) ;
#353 = FILL_AREA_STYLE_COLOUR ( '', #144 ) ;
#354 = ORIENTED_EDGE ( 'NONE', *, *, #179, .F. ) ;
#355 = MECHANICAL_DESIGN_GEOMETRIC_PRESENTATION_REPRESENTATION (  '', ( #521 ), #91 ) ;
#356 = UNCERTAINTY_MEASURE_WITH_UNIT (LENGTH_MEASURE( 1.000000000000000082E-05 ), #781, 'distance_accuracy_value', 'NONE');
#357 = ORIENTED_EDGE ( 'NONE', *, *, #73, .F. ) ;
#358 =( NAMED_UNIT ( * ) PLANE_ANGLE_UNIT ( ) SI_UNIT ( $, .RADIAN. ) );
#359 = DIRECTION ( 'NONE',  ( -1.000000000000000000, 0.000000000000000000, 0.000000000000000000 ) ) ;
#360 = ORIENTED_EDGE ( 'NONE', *, *, #319, .T. ) ;
#361 = ORIENTED_EDGE ( 'NONE', *, *, #194, .F. ) ;
#362 = EDGE_CURVE ( 'NONE', #785, #792, #94, .T. ) ;
#363 = DIRECTION ( 'NONE',  ( -1.214306433183764720E-16, -0.000000000000000000, -1.000000000000000000 ) ) ;
#364 = PRESENTATION_STYLE_ASSIGNMENT (( #512 ) ) ;
#365 = ORIENTED_EDGE ( 'NONE', *, *, #434, .T. ) ;
#366 = CIRCLE ( 'NONE', #942, 0.6500000000000000222 ) ;
#367 = DIRECTION ( 'NONE',  ( -1.000000000000000000, 0.000000000000000000, 0.000000000000000000 ) ) ;
#368 =( NAMED_UNIT ( * ) SI_UNIT ( $, .STERADIAN. ) SOLID_ANGLE_UNIT ( ) );
#369 = DIRECTION ( 'NONE',  ( 0.000000000000000000, 1.000000000000000000, -0.000000000000000000 ) ) ;
#370 = VECTOR ( 'NONE', #806, 1000.000000000000000 ) ;
#371 = EDGE_LOOP ( 'NONE', ( #753, #459 ) ) ;
#372 = SURFACE_STYLE_FILL_AREA ( #860 ) ;
#373 = DIRECTION ( 'NONE',  ( 1.000000000000000000, 0.000000000000000000, -1.214306433183764720E-16 ) ) ;
#374 = DIRECTION ( 'NONE',  ( -1.000000000000000000, 0.000000000000000000, 1.214306433183764720E-16 ) ) ;
#375 = LINE ( 'NONE', #660, #45 ) ;
#376 = ORIENTED_EDGE ( 'NONE', *, *, #769, .T. ) ;
#377 = EDGE_CURVE ( 'NONE', #792, #1, #366, .T. ) ;
#378 = PRESENTATION_LAYER_ASSIGNMENT (  '', '', ( #553 ) ) ;
#379 = ORIENTED_EDGE ( 'NONE', *, *, #958, .F. ) ;
#380 =( LENGTH_UNIT ( ) NAMED_UNIT ( * ) SI_UNIT ( .MILLI., .METRE. ) );
#381 = CARTESIAN_POINT ( 'NONE',  ( 0.6500000000000001332, 7.960204194457796709E-17, 1.200000000000000178 ) ) ;
#382 = SURFACE_STYLE_FILL_AREA ( #729 ) ;
#383 = ORIENTED_EDGE ( 'NONE', *, *, #802, .F. ) ;
#384 = CIRCLE ( 'NONE', #279, 0.6444143388588116084 ) ;
#385 = SURFACE_SIDE_STYLE ('',( #732 ) ) ;
#386 = EDGE_CURVE ( 'NONE', #294, #341, #691, .T. ) ;
#387 = DIRECTION ( 'NONE',  ( -1.000000000000000000, -1.224646799147353207E-16, 0.000000000000000000 ) ) ;
#388 = ORIENTED_EDGE ( 'NONE', *, *, #653, .T. ) ;
#389 = FILL_AREA_STYLE_COLOUR ( '', #232 ) ;
#390 = SURFACE_SIDE_STYLE ('',( #801 ) ) ;
#391 = ADVANCED_FACE ( 'NONE', ( #227 ), #990, .T. ) ;
#392 = STYLED_ITEM ( 'NONE', ( #872 ), #214 ) ;
#393 = CONICAL_SURFACE ( 'NONE', #968, 0.9000000000000000222, 0.7853981633974482790 ) ;
#394 = ORIENTED_EDGE ( 'NONE', *, *, #419, .T. ) ;
#395 = DIRECTION ( 'NONE',  ( -1.000000000000000000, 0.000000000000000000, 0.000000000000000000 ) ) ;
#396 = AXIS2_PLACEMENT_3D ( 'NONE', #417, #900, #911 ) ;
#397 = STYLED_ITEM ( 'NONE', ( #197 ), #167 ) ;
#398 = CYLINDRICAL_SURFACE ( 'NONE', #820, 0.4100000000000000866 ) ;
#399 = UNCERTAINTY_MEASURE_WITH_UNIT (LENGTH_MEASURE( 1.000000000000000082E-05 ), #15, 'distance_accuracy_value', 'NONE');
#400 = CIRCLE ( 'NONE', #796, 0.4000000000000000222 ) ;
#401 = DIRECTION ( 'NONE',  ( -1.214306433183764720E-16, -0.000000000000000000, -1.000000000000000000 ) ) ;
#402 = DIRECTION ( 'NONE',  ( -1.000000000000000000, 0.000000000000000000, 1.214306433183764720E-16 ) ) ;
#403 = FACE_OUTER_BOUND ( 'NONE', #610, .T. ) ;
#404 = PRESENTATION_LAYER_ASSIGNMENT (  '', '', ( #731 ) ) ;
#405 =( NAMED_UNIT ( * ) SI_UNIT ( $, .STERADIAN. ) SOLID_ANGLE_UNIT ( ) );
#406 = DIRECTION ( 'NONE',  ( -1.000000000000000000, 0.000000000000000000, 0.000000000000000000 ) ) ;
#407 = EDGE_CURVE ( 'NONE', #413, #924, #183, .T. ) ;
#408 = DIRECTION ( 'NONE',  ( 0.1490565198950258574, 1.825415899814873401E-17, -0.9888286777176235054 ) ) ;
#409 =( GEOMETRIC_REPRESENTATION_CONTEXT ( 3 ) GLOBAL_UNCERTAINTY_ASSIGNED_CONTEXT ( ( #418 ) ) GLOBAL_UNIT_ASSIGNED_CONTEXT ( ( #714, #636, #949 ) ) REPRESENTATION_CONTEXT ( 'NONE', 'WORKASPACE' ) );
#410 = AXIS2_PLACEMENT_3D ( 'NONE', #336, #982, #373 ) ;
#411 = DIRECTION ( 'NONE',  ( -1.214306433183764720E-16, -0.000000000000000000, -1.000000000000000000 ) ) ;
#412 = FILL_AREA_STYLE_COLOUR ( '', #310 ) ;
#413 = VERTEX_POINT ( 'NONE', #866 ) ;
#414 = DIRECTION ( 'NONE',  ( -1.214306433183764720E-16, -0.000000000000000000, -1.000000000000000000 ) ) ;
#415 = FILL_AREA_STYLE ('',( #412 ) ) ;
#416 = STYLED_ITEM ( 'NONE', ( #523 ), #752 ) ;
#417 = CARTESIAN_POINT ( 'NONE',  ( 4.735795089416682258E-17, 0.000000000000000000, 0.3900000000000000133 ) ) ;
#418 = UNCERTAINTY_MEASURE_WITH_UNIT (LENGTH_MEASURE( 1.000000000000000082E-05 ), #714, 'distance_accuracy_value', 'NONE');
#419 = EDGE_CURVE ( 'NONE', #713, #798, #609, .T. ) ;
#420 =( GEOMETRIC_REPRESENTATION_CONTEXT ( 3 ) GLOBAL_UNCERTAINTY_ASSIGNED_CONTEXT ( ( #836 ) ) GLOBAL_UNIT_ASSIGNED_CONTEXT ( ( #343, #667, #606 ) ) REPRESENTATION_CONTEXT ( 'NONE', 'WORKASPACE' ) );
#421 = CARTESIAN_POINT ( 'NONE',  ( 1.787894371768936369E-16, 0.000000000000000000, 1.472358477984254232 ) ) ;
#422 = FILL_AREA_STYLE_COLOUR ( '', #1014 ) ;
#423 = ORIENTED_EDGE ( 'NONE', *, *, #550, .T. ) ;
#424 =( NAMED_UNIT ( * ) PLANE_ANGLE_UNIT ( ) SI_UNIT ( $, .RADIAN. ) );
#425 = EDGE_LOOP ( 'NONE', ( #542, #376, #452, #3 ) ) ;
#426 = CARTESIAN_POINT ( 'NONE',  ( -0.8899999999999999023, 0.000000000000000000, 0.4000000000000001332 ) ) ;
#427 =( NAMED_UNIT ( * ) PLANE_ANGLE_UNIT ( ) SI_UNIT ( $, .RADIAN. ) );
#428 = PRESENTATION_LAYER_ASSIGNMENT (  '', '', ( #320 ) ) ;
#429 = ORIENTED_EDGE ( 'NONE', *, *, #377, .T. ) ;
#430 = COLOUR_RGB ( '',0.9686274509803921573, 0.8784313725490195957, 0.5999999999999999778 ) ;
#431 =( LENGTH_UNIT ( ) NAMED_UNIT ( * ) SI_UNIT ( .MILLI., .METRE. ) );
#432 = UNCERTAINTY_MEASURE_WITH_UNIT (LENGTH_MEASURE( 1.000000000000000082E-05 ), #978, 'distance_accuracy_value', 'NONE');
#433 = VERTEX_POINT ( 'NONE', #381 ) ;
#434 = EDGE_CURVE ( 'NONE', #303, #913, #710, .T. ) ;
#435 = FILL_AREA_STYLE_COLOUR ( '', #544 ) ;
#436 = CARTESIAN_POINT ( 'NONE',  ( 1.722764978462720972E-16, 0.000000000000000000, 1.418723422180873550 ) ) ;
#437 = EDGE_LOOP ( 'NONE', ( #496, #692, #85, #1002 ) ) ;
#438 = DIRECTION ( 'NONE',  ( -1.000000000000000000, 0.000000000000000000, 0.000000000000000000 ) ) ;
#439 = FILL_AREA_STYLE ('',( #844 ) ) ;
#440 = STYLED_ITEM ( 'NONE', ( #964 ), #777 ) ;
#441 = EDGE_LOOP ( 'NONE', ( #634, #192, #864, #1015 ) ) ;
#442 = DIRECTION ( 'NONE',  ( 1.214306433183764720E-16, 0.000000000000000000, 1.000000000000000000 ) ) ;
#443 = CARTESIAN_POINT ( 'NONE',  ( -0.6145933147571505106, 0.000000000000000000, 1.472358477984254232 ) ) ;
#444 = MECHANICAL_DESIGN_GEOMETRIC_PRESENTATION_REPRESENTATION (  '', ( #551 ), #409 ) ;
#445 = PRESENTATION_LAYER_ASSIGNMENT (  '', '', ( #301 ) ) ;
#446 = TOROIDAL_SURFACE ( 'NONE', #993, 0.4662690130995069682, 0.1500000000000002442 ) ;
#447 = FILL_AREA_STYLE ('',( #300 ) ) ;
#448 = MECHANICAL_DESIGN_GEOMETRIC_PRESENTATION_REPRESENTATION (  '', ( #928 ), #139 ) ;
#449 = SURFACE_SIDE_STYLE ('',( #698 ) ) ;
#450 = MECHANICAL_DESIGN_GEOMETRIC_PRESENTATION_REPRESENTATION (  '', ( #304 ), #9 ) ;
#451 = CARTESIAN_POINT ( 'NONE',  ( 1.547667865328775928E-16, 0.000000000000000000, 1.274528259947514064 ) ) ;
#452 = ORIENTED_EDGE ( 'NONE', *, *, #205, .F. ) ;
#453 = STYLED_ITEM ( 'NONE', ( #818 ), #101 ) ;
#454 = DIRECTION ( 'NONE',  ( 1.000000000000000000, 0.000000000000000000, -1.214306433183764720E-16 ) ) ;
#455 = PRESENTATION_STYLE_ASSIGNMENT (( #630 ) ) ;
#456 =( LENGTH_UNIT ( ) NAMED_UNIT ( * ) SI_UNIT ( .MILLI., .METRE. ) );
#457 = AXIS2_PLACEMENT_3D ( 'NONE', #130, #56, #292 ) ;
#458 = EDGE_CURVE ( 'NONE', #111, #936, #586, .T. ) ;
#459 = ORIENTED_EDGE ( 'NONE', *, *, #119, .F. ) ;
#460 = FILL_AREA_STYLE_COLOUR ( '', #835 ) ;
#461 =( LENGTH_UNIT ( ) NAMED_UNIT ( * ) SI_UNIT ( .MILLI., .METRE. ) );
#462 =( LENGTH_UNIT ( ) NAMED_UNIT ( * ) SI_UNIT ( .MILLI., .METRE. ) );
#463 = ORIENTED_EDGE ( 'NONE', *, *, #179, .T. ) ;
#464 =( LENGTH_UNIT ( ) NAMED_UNIT ( * ) SI_UNIT ( .MILLI., .METRE. ) );
#465 = PRESENTATION_STYLE_ASSIGNMENT (( #89 ) ) ;
#466 = DIRECTION ( 'NONE',  ( 1.000000000000000000, 0.000000000000000000, -1.214306433183764720E-16 ) ) ;
#467 = CIRCLE ( 'NONE', #662, 0.4100000000000000866 ) ;
#468 = VERTEX_POINT ( 'NONE', #641 ) ;
#469 = ADVANCED_FACE ( 'NONE', ( #944 ), #393, .T. ) ;
#470 = CARTESIAN_POINT ( 'NONE',  ( -2.764762713133978310E-34, 0.000000000000000000, -2.276824562219525415E-18 ) ) ;
#471 = CARTESIAN_POINT ( 'NONE',  ( 0.000000000000000000, 0.000000000000000000, 0.000000000000000000 ) ) ;
#472 = FACE_OUTER_BOUND ( 'NONE', #12, .T. ) ;
#473 = ORIENTED_EDGE ( 'NONE', *, *, #386, .F. ) ;
#474 = AXIS2_PLACEMENT_3D ( 'NONE', #686, #675, #359 ) ;
#475 = AXIS2_PLACEMENT_3D ( 'NONE', #916, #522, #527 ) ;
#476 = DIRECTION ( 'NONE',  ( -1.000000000000000000, 0.000000000000000000, 1.204669080539449344E-16 ) ) ;
#477 = SURFACE_STYLE_FILL_AREA ( #715 ) ;
#478 = ORIENTED_EDGE ( 'NONE', *, *, #30, .T. ) ;
#479 = DIRECTION ( 'NONE',  ( -1.000000000000000000, 0.000000000000000000, 8.340016711426956521E-17 ) ) ;
#480 = CARTESIAN_POINT ( 'NONE',  ( 1.355252715606880543E-16, 0.000000000000000000, 1.200000000000000178 ) ) ;
#481 = SURFACE_STYLE_FILL_AREA ( #661 ) ;
#482 = VECTOR ( 'NONE', #250, 1000.000000000000000 ) ;
#483 = CLOSED_SHELL ( 'NONE', ( #965, #134, #307, #579, #668, #391, #167, #21, #621, #524, #101, #752, #725, #469, #875, #62, #93, #817, #631, #35, #48, #941, #607, #214 ) ) ;
#484 = SURFACE_STYLE_USAGE ( .BOTH. , #730 ) ;
#485 = FILL_AREA_STYLE ('',( #389 ) ) ;
#486 =( GEOMETRIC_REPRESENTATION_CONTEXT ( 3 ) GLOBAL_UNCERTAINTY_ASSIGNED_CONTEXT ( ( #658 ) ) GLOBAL_UNIT_ASSIGNED_CONTEXT ( ( #28, #358, #669 ) ) REPRESENTATION_CONTEXT ( 'NONE', 'WORKASPACE' ) );
#487 = FILL_AREA_STYLE_COLOUR ( '', #571 ) ;
#488 = UNCERTAINTY_MEASURE_WITH_UNIT (LENGTH_MEASURE( 1.000000000000000082E-05 ), #867, 'distance_accuracy_value', 'NONE');
#489 = AXIS2_PLACEMENT_3D ( 'NONE', #931, #1007, #149 ) ;
#490 = DIRECTION ( 'NONE',  ( -1.214306433183764720E-16, -0.000000000000000000, -1.000000000000000000 ) ) ;
#491 = VECTOR ( 'NONE', #612, 1000.000000000000000 ) ;
#492 = FILL_AREA_STYLE_COLOUR ( '', #719 ) ;
#493 = FACE_OUTER_BOUND ( 'NONE', #783, .T. ) ;
#494 = SURFACE_STYLE_FILL_AREA ( #594 ) ;
#495 = DIRECTION ( 'NONE',  ( 0.000000000000000000, -1.000000000000000000, 0.000000000000000000 ) ) ;
#496 = ORIENTED_EDGE ( 'NONE', *, *, #244, .F. ) ;
#497 = AXIS2_PLACEMENT_3D ( 'NONE', #562, #2, #938 ) ;
#498 = DIRECTION ( 'NONE',  ( 0.7071067811865487940, 0.000000000000000000, 0.7071067811865463515 ) ) ;
#499 = MECHANICAL_DESIGN_GEOMETRIC_PRESENTATION_REPRESENTATION (  '', ( #517 ), #55 ) ;
#500 = CIRCLE ( 'NONE', #970, 0.4100000000000000311 ) ;
#501 = COLOUR_RGB ( '',0.9686274509803921573, 0.8784313725490195957, 0.5999999999999999778 ) ;
#502 =( NAMED_UNIT ( * ) PLANE_ANGLE_UNIT ( ) SI_UNIT ( $, .RADIAN. ) );
#503 = LINE ( 'NONE', #286, #491 ) ;
#504 = EDGE_CURVE ( 'NONE', #468, #140, #467, .T. ) ;
#505 = EDGE_LOOP ( 'NONE', ( #354, #829, #908 ) ) ;
#506 = CIRCLE ( 'NONE', #697, 0.7999999999999999334 ) ;
#507 = SURFACE_STYLE_FILL_AREA ( #956 ) ;
#508 =( LENGTH_UNIT ( ) NAMED_UNIT ( * ) SI_UNIT ( .MILLI., .METRE. ) );
#509 = PRESENTATION_LAYER_ASSIGNMENT (  '', '', ( #919 ) ) ;
#510 = SURFACE_SIDE_STYLE ('',( #82 ) ) ;
#511 = UNCERTAINTY_MEASURE_WITH_UNIT (LENGTH_MEASURE( 1.000000000000000082E-05 ), #127, 'distance_accuracy_value', 'NONE');
#512 = SURFACE_STYLE_USAGE ( .BOTH. , #759 ) ;
#513 = UNCERTAINTY_MEASURE_WITH_UNIT (LENGTH_MEASURE( 1.000000000000000082E-05 ), #27, 'distance_accuracy_value', 'NONE');
#514 = FACE_OUTER_BOUND ( 'NONE', #441, .T. ) ;
#515 = CARTESIAN_POINT ( 'NONE',  ( 1.722764978462720972E-16, 0.000000000000000000, 1.418723422180873550 ) ) ;
#516 = FILL_AREA_STYLE_COLOUR ( '', #340 ) ;
#517 = STYLED_ITEM ( 'NONE', ( #260 ), #469 ) ;
#518 = CARTESIAN_POINT ( 'NONE',  ( -0.9000000000000000222, 1.102182119232618034E-16, 0.09999999999999986677 ) ) ;
#519 = CARTESIAN_POINT ( 'NONE',  ( 2.246466901389964201E-16, 0.000000000000000000, 1.849999999999999645 ) ) ;
#520 = ORIENTED_EDGE ( 'NONE', *, *, #362, .T. ) ;
#521 = STYLED_ITEM ( 'NONE', ( #557 ), #621 ) ;
#522 = DIRECTION ( 'NONE',  ( 1.214306433183764720E-16, 0.000000000000000000, 1.000000000000000000 ) ) ;
#523 = PRESENTATION_STYLE_ASSIGNMENT (( #917 ) ) ;
#524 = ADVANCED_FACE ( 'NONE', ( #737 ), #116, .T. ) ;
#525 = DIRECTION ( 'NONE',  ( 0.000000000000000000, 0.000000000000000000, -1.000000000000000000 ) ) ;
#526 = SURFACE_SIDE_STYLE ('',( #989 ) ) ;
#527 = DIRECTION ( 'NONE',  ( 1.000000000000000000, 0.000000000000000000, -1.214306433183764720E-16 ) ) ;
#528 = CARTESIAN_POINT ( 'NONE',  ( -0.6500000000000000222, 0.000000000000000000, 0.4000000000000001332 ) ) ;
#529 = CARTESIAN_POINT ( 'NONE',  ( 0.4000000000000001887, 4.898587196589412459E-17, 1.418723422180873550 ) ) ;
#530 = ORIENTED_EDGE ( 'NONE', *, *, #802, .T. ) ;
#531 = CYLINDRICAL_SURFACE ( 'NONE', #628, 0.3999999999999999667 ) ;
#532 = CIRCLE ( 'NONE', #316, 0.5000000000000000000 ) ;
#533 = CARTESIAN_POINT ( 'NONE',  ( -0.4662690130995068016, 0.000000000000000000, 1.600000000000000311 ) ) ;
#534 = EDGE_CURVE ( 'NONE', #877, #924, #99, .T. ) ;
#535 = AXIS2_PLACEMENT_3D ( 'NONE', #623, #768, #374 ) ;
#536 = SURFACE_STYLE_FILL_AREA ( #137 ) ;
#537 = ORIENTED_EDGE ( 'NONE', *, *, #73, .T. ) ;
#538 = MECHANICAL_DESIGN_GEOMETRIC_PRESENTATION_REPRESENTATION (  '', ( #397 ), #486 ) ;
#539 =( NAMED_UNIT ( * ) SI_UNIT ( $, .STERADIAN. ) SOLID_ANGLE_UNIT ( ) );
#540 = DIRECTION ( 'NONE',  ( -1.000000000000000000, 0.000000000000000000, 0.000000000000000000 ) ) ;
#541 = CIRCLE ( 'NONE', #457, 0.9000000000000000222 ) ;
#542 = ORIENTED_EDGE ( 'NONE', *, *, #350, .T. ) ;
#543 = SURFACE_SIDE_STYLE ('',( #869 ) ) ;
#544 = COLOUR_RGB ( '',0.9686274509803921573, 0.8784313725490195957, 0.5999999999999999778 ) ;
#545 = CARTESIAN_POINT ( 'NONE',  ( 2.265596578422603100E-16, 0.000000000000000000, 1.849999999999999645 ) ) ;
#546 = CYLINDRICAL_SURFACE ( 'NONE', #825, 0.6500000000000000222 ) ;
#547 = FILL_AREA_STYLE_COLOUR ( '', #762 ) ;
#548 = ORIENTED_EDGE ( 'NONE', *, *, #845, .T. ) ;
#549 = FILL_AREA_STYLE ('',( #933 ) ) ;
#550 = EDGE_CURVE ( 'NONE', #785, #433, #335, .T. ) ;
#551 = STYLED_ITEM ( 'NONE', ( #465 ), #391 ) ;
#552 = DIRECTION ( 'NONE',  ( -1.000000000000000000, -1.224646799147352961E-16, 0.000000000000000000 ) ) ;
#553 = STYLED_ITEM ( 'NONE', ( #682 ), #524 ) ;
#554 = CARTESIAN_POINT ( 'NONE',  ( 0.9000000000000000222, 1.102182119232617788E-16, 0.3899999999999999023 ) ) ;
#555 = MECHANICAL_DESIGN_GEOMETRIC_PRESENTATION_REPRESENTATION (  '', ( #118 ), #236 ) ;
#556 = ORIENTED_EDGE ( 'NONE', *, *, #458, .F. ) ;
#557 = PRESENTATION_STYLE_ASSIGNMENT (( #299 ) ) ;
#558 =( GEOMETRIC_REPRESENTATION_CONTEXT ( 3 ) GLOBAL_UNCERTAINTY_ASSIGNED_CONTEXT ( ( #334 ) ) GLOBAL_UNIT_ASSIGNED_CONTEXT ( ( #508, #743, #581 ) ) REPRESENTATION_CONTEXT ( 'NONE', 'WORKASPACE' ) );
#559 =( LENGTH_UNIT ( ) NAMED_UNIT ( * ) SI_UNIT ( .MILLI., .METRE. ) );
#560 = ORIENTED_EDGE ( 'NONE', *, *, #550, .F. ) ;
#561 = VECTOR ( 'NONE', #597, 1000.000000000000000 ) ;
#562 = CARTESIAN_POINT ( 'NONE',  ( 1.355252715606880543E-16, 0.000000000000000000, 1.200000000000000178 ) ) ;
#563 = DIRECTION ( 'NONE',  ( -1.214306433183764720E-16, -0.000000000000000000, -1.000000000000000000 ) ) ;
#564 = VERTEX_POINT ( 'NONE', #443 ) ;
#565 = DIRECTION ( 'NONE',  ( -1.214306433183764720E-16, -0.000000000000000000, -1.000000000000000000 ) ) ;
#566 = DIRECTION ( 'NONE',  ( -1.000000000000000000, -1.224646799147353207E-16, 0.000000000000000000 ) ) ;
#567 = EDGE_CURVE ( 'NONE', #433, #785, #739, .T. ) ;
#568 = CARTESIAN_POINT ( 'NONE',  ( -0.4662690130995068016, 0.000000000000000000, 1.450000000000000178 ) ) ;
#569 = STYLED_ITEM ( 'NONE', ( #918 ), #607 ) ;
#570 = SURFACE_STYLE_FILL_AREA ( #657 ) ;
#571 = COLOUR_RGB ( '',1.000000000000000000, 1.000000000000000000, 1.000000000000000000 ) ;
#572 = CARTESIAN_POINT ( 'NONE',  ( -2.764762713133978310E-34, 0.000000000000000000, -2.276824562219525415E-18 ) ) ;
#573 = AXIS2_PLACEMENT_3D ( 'NONE', #823, #756, #346 ) ;
#574 = DIRECTION ( 'NONE',  ( 0.7071067811865474617, 8.659560562354934091E-17, -0.7071067811865476838 ) ) ;
#575 =( NAMED_UNIT ( * ) SI_UNIT ( $, .STERADIAN. ) SOLID_ANGLE_UNIT ( ) );
#576 = CYLINDRICAL_SURFACE ( 'NONE', #326, 0.6500000000000000222 ) ;
#577 = VECTOR ( 'NONE', #363, 1000.000000000000000 ) ;
#578 = DIRECTION ( 'NONE',  ( -1.000000000000000000, 0.000000000000000000, 8.340016711426956521E-17 ) ) ;
#579 = ADVANCED_FACE ( 'NONE', ( #47 ), #446, .T. ) ;
#580 = SURFACE_SIDE_STYLE ('',( #507 ) ) ;
#581 =( NAMED_UNIT ( * ) SI_UNIT ( $, .STERADIAN. ) SOLID_ANGLE_UNIT ( ) );
#582 = DIRECTION ( 'NONE',  ( 1.000000000000000000, 0.000000000000000000, 0.000000000000000000 ) ) ;
#583 =( NAMED_UNIT ( * ) PLANE_ANGLE_UNIT ( ) SI_UNIT ( $, .RADIAN. ) );
#584 = AXIS2_PLACEMENT_3D ( 'NONE', #470, #800, #172 ) ;
#585 = SURFACE_STYLE_FILL_AREA ( #325 ) ;
#586 = CIRCLE ( 'NONE', #912, 0.8899999999999999023 ) ;
#587 = EDGE_CURVE ( 'NONE', #140, #468, #6, .T. ) ;
#588 = CIRCLE ( 'NONE', #959, 0.6145933147571507327 ) ;
#589 = FACE_OUTER_BOUND ( 'NONE', #102, .T. ) ;
#590 =( GEOMETRIC_REPRESENTATION_CONTEXT ( 3 ) GLOBAL_UNCERTAINTY_ASSIGNED_CONTEXT ( ( #20 ) ) GLOBAL_UNIT_ASSIGNED_CONTEXT ( ( #185, #502, #888 ) ) REPRESENTATION_CONTEXT ( 'NONE', 'WORKASPACE' ) );
#591 = COLOUR_RGB ( '',0.9686274509803921573, 0.8784313725490195957, 0.5999999999999999778 ) ;
#592 = CARTESIAN_POINT ( 'NONE',  ( 0.9000000000000000222, 1.102182119232617788E-16, -1.092875789865388223E-16 ) ) ;
#593 = CARTESIAN_POINT ( 'NONE',  ( -0.3999999999999997446, 0.000000000000000000, 1.849999999999999645 ) ) ;
#594 = FILL_AREA_STYLE ('',( #353 ) ) ;
#595 = APPLICATION_PROTOCOL_DEFINITION ( 'draft international standard', 'automotive_design', 1998, #601 ) ;
#596 = VECTOR ( 'NONE', #850, 1000.000000000000000 ) ;
#597 = DIRECTION ( 'NONE',  ( -1.214306433183764720E-16, -0.000000000000000000, -1.000000000000000000 ) ) ;
#598 = UNCERTAINTY_MEASURE_WITH_UNIT (LENGTH_MEASURE( 1.000000000000000082E-05 ), #824, 'distance_accuracy_value', 'NONE');
#599 = ORIENTED_EDGE ( 'NONE', *, *, #386, .T. ) ;
#600 = SURFACE_SIDE_STYLE ('',( #141 ) ) ;
#601 = APPLICATION_CONTEXT ( 'automotive_design' ) ;
#602 = DIRECTION ( 'NONE',  ( -1.214306433183764720E-16, -0.000000000000000000, -1.000000000000000000 ) ) ;
#603 = DIRECTION ( 'NONE',  ( -1.214306433183764720E-16, -0.000000000000000000, -1.000000000000000000 ) ) ;
#604 = SURFACE_STYLE_USAGE ( .BOTH. , #268 ) ;
#605 = ORIENTED_EDGE ( 'NONE', *, *, #885, .F. ) ;
#606 =( NAMED_UNIT ( * ) SI_UNIT ( $, .STERADIAN. ) SOLID_ANGLE_UNIT ( ) );
#607 = ADVANCED_FACE ( 'NONE', ( #514 ), #531, .T. ) ;
#608 = DIRECTION ( 'NONE',  ( -1.214306433183764720E-16, -0.000000000000000000, -1.000000000000000000 ) ) ;
#609 = CIRCLE ( 'NONE', #788, 0.1500000000000002442 ) ;
#610 = EDGE_LOOP ( 'NONE', ( #629, #388, #837, #162 ) ) ;
#611 = CARTESIAN_POINT ( 'NONE',  ( 2.265596578422603100E-16, 0.000000000000000000, 1.849999999999999645 ) ) ;
#612 = DIRECTION ( 'NONE',  ( -1.214306433183764720E-16, -0.000000000000000000, -1.000000000000000000 ) ) ;
#613 = FACE_OUTER_BOUND ( 'NONE', #889, .T. ) ;
#614 = CYLINDRICAL_SURFACE ( 'NONE', #652, 0.9000000000000000222 ) ;
#615 = ORIENTED_EDGE ( 'NONE', *, *, #653, .F. ) ;
#616 = DIRECTION ( 'NONE',  ( -1.214306433183764720E-16, -0.000000000000000000, -1.000000000000000000 ) ) ;
#617 = SURFACE_STYLE_FILL_AREA ( #447 ) ;
#618 =( GEOMETRIC_REPRESENTATION_CONTEXT ( 3 ) GLOBAL_UNCERTAINTY_ASSIGNED_CONTEXT ( ( #113 ) ) GLOBAL_UNIT_ASSIGNED_CONTEXT ( ( #431, #695, #125 ) ) REPRESENTATION_CONTEXT ( 'NONE', 'WORKASPACE' ) );
#619 = CARTESIAN_POINT ( 'NONE',  ( -0.4099999999999998646, 0.000000000000000000, 1.418723422180873550 ) ) ;
#620 =( GEOMETRIC_REPRESENTATION_CONTEXT ( 3 ) GLOBAL_UNCERTAINTY_ASSIGNED_CONTEXT ( ( #44 ) ) GLOBAL_UNIT_ASSIGNED_CONTEXT ( ( #975, #122, #100 ) ) REPRESENTATION_CONTEXT ( 'NONE', 'WORKASPACE' ) );
#621 = ADVANCED_FACE ( 'NONE', ( #318 ), #799, .T. ) ;
#622 = DIRECTION ( 'NONE',  ( -1.214306433183764720E-16, -0.000000000000000000, -1.000000000000000000 ) ) ;
#623 = CARTESIAN_POINT ( 'NONE',  ( 0.000000000000000000, 0.000000000000000000, 0.000000000000000000 ) ) ;
#624 = EDGE_LOOP ( 'NONE', ( #361, #229 ) ) ;
#625 = SURFACE_STYLE_USAGE ( .BOTH. , #1011 ) ;
#626 = AXIS2_PLACEMENT_3D ( 'NONE', #568, #721, #881 ) ;
#627 = PRESENTATION_STYLE_ASSIGNMENT (( #66 ) ) ;
#628 = AXIS2_PLACEMENT_3D ( 'NONE', #786, #163, #1016 ) ;
#629 = ORIENTED_EDGE ( 'NONE', *, *, #106, .F. ) ;
#630 = SURFACE_STYLE_USAGE ( .BOTH. , #846 ) ;
#631 = ADVANCED_FACE ( 'NONE', ( #865 ), #708, .T. ) ;
#632 = SURFACE_STYLE_FILL_AREA ( #699 ) ;
#633 = AXIS2_PLACEMENT_3D ( 'NONE', #728, #702, #935 ) ;
#634 = ORIENTED_EDGE ( 'NONE', *, *, #814, .F. ) ;
#635 =( NAMED_UNIT ( * ) SI_UNIT ( $, .STERADIAN. ) SOLID_ANGLE_UNIT ( ) );
#636 =( NAMED_UNIT ( * ) PLANE_ANGLE_UNIT ( ) SI_UNIT ( $, .RADIAN. ) );
#637 = MANIFOLD_SOLID_BREP ( '旋转1', #483 ) ;
#638 = PRODUCT_RELATED_PRODUCT_CATEGORY ( 'part', '', ( #656 ) ) ;
#639 = ORIENTED_EDGE ( 'NONE', *, *, #672, .T. ) ;
#640 = AXIS2_PLACEMENT_3D ( 'NONE', #811, #727, #476 ) ;
#641 = CARTESIAN_POINT ( 'NONE',  ( 0.4100000000000003086, 5.021051876504149357E-17, 1.600000000000000089 ) ) ;
#642 = AXIS2_PLACEMENT_3D ( 'NONE', #297, #622, #147 ) ;
#643 = DIRECTION ( 'NONE',  ( -1.000000000000000000, 0.000000000000000000, 0.000000000000000000 ) ) ;
#644 = APPLICATION_CONTEXT ( 'automotive_design' ) ;
#645 =( GEOMETRIC_REPRESENTATION_CONTEXT ( 3 ) GLOBAL_UNCERTAINTY_ASSIGNED_CONTEXT ( ( #901 ) ) GLOBAL_UNIT_ASSIGNED_CONTEXT ( ( #262, #724, #954 ) ) REPRESENTATION_CONTEXT ( 'NONE', 'WORKASPACE' ) );
#646 = ORIENTED_EDGE ( 'NONE', *, *, #504, .T. ) ;
#647 = DIRECTION ( 'NONE',  ( -1.214306433183764720E-16, -0.000000000000000000, -1.000000000000000000 ) ) ;
#648 = AXIS2_PLACEMENT_3D ( 'NONE', #281, #832, #962 ) ;
#649 = LINE ( 'NONE', #554, #36 ) ;
#650 = AXIS2_PLACEMENT_3D ( 'NONE', #611, #201, #525 ) ;
#651 = ORIENTED_EDGE ( 'NONE', *, *, #696, .F. ) ;
#652 = AXIS2_PLACEMENT_3D ( 'NONE', #680, #608, #971 ) ;
#653 = EDGE_CURVE ( 'NONE', #798, #564, #588, .T. ) ;
#654 = CARTESIAN_POINT ( 'NONE',  ( 0.4100000000000001976, 5.021051876504149357E-17, 1.418723422180873550 ) ) ;
#655 = PRESENTATION_STYLE_ASSIGNMENT (( #18 ) ) ;
#657 = FILL_AREA_STYLE ('',( #339 ) ) ;
#656 = PRODUCT ( 'SMD_BD1.8-L1.8-W1.8', 'SMD_BD1.8-L1.8-W1.8', '', ( #842 ) ) ;
#658 = UNCERTAINTY_MEASURE_WITH_UNIT (LENGTH_MEASURE( 1.000000000000000082E-05 ), #28, 'distance_accuracy_value', 'NONE');
#659 = CARTESIAN_POINT ( 'NONE',  ( 4.857225732735059864E-17, 0.000000000000000000, 0.4000000000000000777 ) ) ;
#660 = CARTESIAN_POINT ( 'NONE',  ( 0.6500000000000000222, 7.960204194457795477E-17, -7.892991815694471047E-17 ) ) ;
#661 = FILL_AREA_STYLE ('',( #947 ) ) ;
#662 = AXIS2_PLACEMENT_3D ( 'NONE', #176, #887, #98 ) ;
#663 = STYLED_ITEM ( 'NONE', ( #906 ), #21 ) ;
#664 = PRESENTATION_STYLE_ASSIGNMENT (( #735 ) ) ;
#665 = FILL_AREA_STYLE_COLOUR ( '', #198 ) ;
#666 = LINE ( 'NONE', #892, #175 ) ;
#667 =( NAMED_UNIT ( * ) PLANE_ANGLE_UNIT ( ) SI_UNIT ( $, .RADIAN. ) );
#668 = ADVANCED_FACE ( 'NONE', ( #493 ), #897, .T. ) ;
#669 =( NAMED_UNIT ( * ) SI_UNIT ( $, .STERADIAN. ) SOLID_ANGLE_UNIT ( ) );
#670 = PRESENTATION_LAYER_ASSIGNMENT (  '', '', ( #81 ) ) ;
#671 = FILL_AREA_STYLE ('',( #969 ) ) ;
#672 = EDGE_CURVE ( 'NONE', #936, #111, #722, .T. ) ;
#673 = SURFACE_STYLE_USAGE ( .BOTH. , #510 ) ;
#674 = EDGE_LOOP ( 'NONE', ( #348, #831 ) ) ;
#675 = DIRECTION ( 'NONE',  ( -1.214306433183764720E-16, -0.000000000000000000, -1.000000000000000000 ) ) ;
#676 = MECHANICAL_DESIGN_GEOMETRIC_PRESENTATION_REPRESENTATION (  '', ( #392 ), #351 ) ;
#677 = VECTOR ( 'NONE', #311, 1000.000000000000000 ) ;
#678 = STYLED_ITEM ( 'NONE', ( #627 ), #48 ) ;
#679 = FACE_BOUND ( 'NONE', #72, .T. ) ;
#680 = CARTESIAN_POINT ( 'NONE',  ( 0.000000000000000000, 0.000000000000000000, 0.000000000000000000 ) ) ;
#681 = DIRECTION ( 'NONE',  ( -1.000000000000000000, 0.000000000000000000, 0.000000000000000000 ) ) ;
#682 = PRESENTATION_STYLE_ASSIGNMENT (( #625 ) ) ;
#683 = EDGE_CURVE ( 'NONE', #1, #792, #822, .T. ) ;
#684 = EDGE_LOOP ( 'NONE', ( #123, #219, #83, #317 ) ) ;
#685 = AXIS2_PLACEMENT_3D ( 'NONE', #124, #369, #438 ) ;
#686 = CARTESIAN_POINT ( 'NONE',  ( 1.547667865328775928E-16, 0.000000000000000000, 1.274528259947514064 ) ) ;
#687 = UNCERTAINTY_MEASURE_WITH_UNIT (LENGTH_MEASURE( 1.000000000000000082E-05 ), #462, 'distance_accuracy_value', 'NONE');
#688 = ORIENTED_EDGE ( 'NONE', *, *, #106, .T. ) ;
#689 = CARTESIAN_POINT ( 'NONE',  ( 1.457167719820517713E-16, 0.000000000000000000, 1.200000000000000178 ) ) ;
#690 = ORIENTED_EDGE ( 'NONE', *, *, #319, .F. ) ;
#691 = CIRCLE ( 'NONE', #584, 0.7999999999999999334 ) ;
#692 = ORIENTED_EDGE ( 'NONE', *, *, #458, .T. ) ;
#693 = SURFACE_STYLE_FILL_AREA ( #221 ) ;
#694 = PRESENTATION_STYLE_ASSIGNMENT (( #306 ) ) ;
#695 =( NAMED_UNIT ( * ) PLANE_ANGLE_UNIT ( ) SI_UNIT ( $, .RADIAN. ) );
#696 = EDGE_CURVE ( 'NONE', #294, #181, #890, .T. ) ;
#697 = AXIS2_PLACEMENT_3D ( 'NONE', #572, #812, #22 ) ;
#698 = SURFACE_STYLE_FILL_AREA ( #852 ) ;
#699 = FILL_AREA_STYLE ('',( #862 ) ) ;
#700 = STYLED_ITEM ( 'NONE', ( #70 ), #875 ) ;
#701 =( NAMED_UNIT ( * ) PLANE_ANGLE_UNIT ( ) SI_UNIT ( $, .RADIAN. ) );
#702 = DIRECTION ( 'NONE',  ( -1.214306433183764720E-16, -0.000000000000000000, -1.000000000000000000 ) ) ;
#703 = ORIENTED_EDGE ( 'NONE', *, *, #672, .F. ) ;
#704 = DIRECTION ( 'NONE',  ( -1.000000000000000000, 0.000000000000000000, 1.214306433183764720E-16 ) ) ;
#705 = PRESENTATION_LAYER_ASSIGNMENT (  '', '', ( #569 ) ) ;
#706 =( NAMED_UNIT ( * ) SI_UNIT ( $, .STERADIAN. ) SOLID_ANGLE_UNIT ( ) );
#707 = COLOUR_RGB ( '',0.9686274509803921573, 0.8784313725490195957, 0.5999999999999999778 ) ;
#708 = TOROIDAL_SURFACE ( 'NONE', #255, 0.4662690130995069682, 0.1500000000000002442 ) ;
#709 = VERTEX_POINT ( 'NONE', #189 ) ;
#710 = LINE ( 'NONE', #1017, #677 ) ;
#711 = EDGE_CURVE ( 'NONE', #709, #994, #400, .T. ) ;
#712 = FACE_OUTER_BOUND ( 'NONE', #932, .T. ) ;
#713 = VERTEX_POINT ( 'NONE', #31 ) ;
#714 =( LENGTH_UNIT ( ) NAMED_UNIT ( * ) SI_UNIT ( .MILLI., .METRE. ) );
#715 = FILL_AREA_STYLE ('',( #321 ) ) ;
#716 = ORIENTED_EDGE ( 'NONE', *, *, #534, .T. ) ;
#717 = CARTESIAN_POINT ( 'NONE',  ( -0.4100000000000000866, 0.000000000000000000, 4.978656376053436238E-17 ) ) ;
#718 = DIRECTION ( 'NONE',  ( -1.000000000000000000, 0.000000000000000000, 1.214306433183764720E-16 ) ) ;
#719 = COLOUR_RGB ( '',0.9686274509803921573, 0.8784313725490195957, 0.5999999999999999778 ) ;
#720 = AXIS2_PLACEMENT_3D ( 'NONE', #115, #295, #681 ) ;
#721 = DIRECTION ( 'NONE',  ( 0.000000000000000000, -1.000000000000000000, 0.000000000000000000 ) ) ;
#722 = CIRCLE ( 'NONE', #856, 0.8899999999999999023 ) ;
#723 = EDGE_LOOP ( 'NONE', ( #599, #537 ) ) ;
#724 =( NAMED_UNIT ( * ) PLANE_ANGLE_UNIT ( ) SI_UNIT ( $, .RADIAN. ) );
#725 = ADVANCED_FACE ( 'NONE', ( #923 ), #614, .T. ) ;
#726 = COLOUR_RGB ( '',0.9686274509803921573, 0.8784313725490195957, 0.5999999999999999778 ) ;
#727 = DIRECTION ( 'NONE',  ( -1.214306433183764720E-16, -0.000000000000000000, -1.000000000000000000 ) ) ;
#728 = CARTESIAN_POINT ( 'NONE',  ( 1.942890293094023946E-16, 0.000000000000000000, 1.600000000000000311 ) ) ;
#729 = FILL_AREA_STYLE ('',( #492 ) ) ;
#730 = SURFACE_SIDE_STYLE ('',( #570 ) ) ;
#731 = STYLED_ITEM ( 'NONE', ( #778 ), #965 ) ;
#732 = SURFACE_STYLE_FILL_AREA ( #485 ) ;
#733 = SURFACE_STYLE_USAGE ( .BOTH. , #390 ) ;
#734 = CARTESIAN_POINT ( 'NONE',  ( -0.6444143388588114973, 0.000000000000000000, 1.274528259947514064 ) ) ;
#735 = SURFACE_STYLE_USAGE ( .BOTH. , #251 ) ;
#736 = UNCERTAINTY_MEASURE_WITH_UNIT (LENGTH_MEASURE( 1.000000000000000082E-05 ), #1005, 'distance_accuracy_value', 'NONE');
#737 = FACE_OUTER_BOUND ( 'NONE', #145, .T. ) ;
#738 = EDGE_CURVE ( 'NONE', #843, #760, #861, .T. ) ;
#739 = CIRCLE ( 'NONE', #642, 0.6500000000000000222 ) ;
#740 = ORIENTED_EDGE ( 'NONE', *, *, #289, .T. ) ;
#741 = DIRECTION ( 'NONE',  ( -1.000000000000000000, 0.000000000000000000, 0.000000000000000000 ) ) ;
#742 = AXIS2_PLACEMENT_3D ( 'NONE', #1001, #288, #278 ) ;
#743 =( NAMED_UNIT ( * ) PLANE_ANGLE_UNIT ( ) SI_UNIT ( $, .RADIAN. ) );
#744 = MECHANICAL_DESIGN_GEOMETRIC_PRESENTATION_REPRESENTATION (  '', ( #700 ), #296 ) ;
#745 = ORIENTED_EDGE ( 'NONE', *, *, #845, .F. ) ;
#746 = SURFACE_STYLE_FILL_AREA ( #38 ) ;
#747 = FILL_AREA_STYLE ('',( #422 ) ) ;
#748 = ORIENTED_EDGE ( 'NONE', *, *, #1010, .F. ) ;
#749 = UNCERTAINTY_MEASURE_WITH_UNIT (LENGTH_MEASURE( 1.000000000000000082E-05 ), #559, 'distance_accuracy_value', 'NONE');
#750 = CIRCLE ( 'NONE', #626, 0.1500000000000001887 ) ;
#751 = UNCERTAINTY_MEASURE_WITH_UNIT (LENGTH_MEASURE( 1.000000000000000082E-05 ), #456, 'distance_accuracy_value', 'NONE');
#752 = ADVANCED_FACE ( 'NONE', ( #283 ), #159, .T. ) ;
#753 = ORIENTED_EDGE ( 'NONE', *, *, #863, .F. ) ;
#754 = FILL_AREA_STYLE ('',( #972 ) ) ;
#755 = AXIS2_PLACEMENT_3D ( 'NONE', #937, #647, #704 ) ;
#756 = DIRECTION ( 'NONE',  ( -1.214306433183764720E-16, -0.000000000000000000, -1.000000000000000000 ) ) ;
#757 = SHAPE_DEFINITION_REPRESENTATION ( #258, #777 ) ;
#758 = SURFACE_STYLE_FILL_AREA ( #671 ) ;
#759 = SURFACE_SIDE_STYLE ('',( #746 ) ) ;
#760 = VERTEX_POINT ( 'NONE', #272 ) ;
#761 = DIRECTION ( 'NONE',  ( -1.214306433183764720E-16, -0.000000000000000000, -1.000000000000000000 ) ) ;
#762 = COLOUR_RGB ( '',0.9686274509803921573, 0.8784313725490195957, 0.5999999999999999778 ) ;
#763 = ORIENTED_EDGE ( 'NONE', *, *, #958, .T. ) ;
#764 =( LENGTH_UNIT ( ) NAMED_UNIT ( * ) SI_UNIT ( .MILLI., .METRE. ) );
#765 =( NAMED_UNIT ( * ) SI_UNIT ( $, .STERADIAN. ) SOLID_ANGLE_UNIT ( ) );
#766 = EDGE_LOOP ( 'NONE', ( #745, #120, #520, #131 ) ) ;
#767 = CARTESIAN_POINT ( 'NONE',  ( 2.246466901389964201E-16, 0.000000000000000000, 1.849999999999999645 ) ) ;
#768 = DIRECTION ( 'NONE',  ( -1.214306433183764720E-16, -0.000000000000000000, -1.000000000000000000 ) ) ;
#769 = EDGE_CURVE ( 'NONE', #780, #181, #108, .T. ) ;
#770 = PLANE ( 'NONE',  #475 ) ;
#771 = PRESENTATION_LAYER_ASSIGNMENT (  '', '', ( #551 ) ) ;
#772 = EDGE_LOOP ( 'NONE', ( #639, #948, #854, #211 ) ) ;
#773 = DIRECTION ( 'NONE',  ( -1.214306433183764720E-16, -0.000000000000000000, -1.000000000000000000 ) ) ;
#774 = COLOUR_RGB ( '',0.9686274509803921573, 0.8784313725490195957, 0.5999999999999999778 ) ;
#775 = FACE_BOUND ( 'NONE', #674, .T. ) ;
#776 = SURFACE_SIDE_STYLE ('',( #617 ) ) ;
#777 = ADVANCED_BREP_SHAPE_REPRESENTATION ( 'SMD_BD1.8-L1.8-W1.8', ( #637, #32 ), #178 ) ;
#778 = PRESENTATION_STYLE_ASSIGNMENT (( #202 ) ) ;
#779 = SURFACE_SIDE_STYLE ('',( #536 ) ) ;
#780 = VERTEX_POINT ( 'NONE', #210 ) ;
#781 =( LENGTH_UNIT ( ) NAMED_UNIT ( * ) SI_UNIT ( .MILLI., .METRE. ) );
#782 =( GEOMETRIC_REPRESENTATION_CONTEXT ( 3 ) GLOBAL_UNCERTAINTY_ASSIGNED_CONTEXT ( ( #687 ) ) GLOBAL_UNIT_ASSIGNED_CONTEXT ( ( #462, #308, #328 ) ) REPRESENTATION_CONTEXT ( 'NONE', 'WORKASPACE' ) );
#783 = EDGE_LOOP ( 'NONE', ( #940, #688, #246, #114 ) ) ;
#784 = PLANE ( 'NONE',  #847 ) ;
#785 = VERTEX_POINT ( 'NONE', #203 ) ;
#786 = CARTESIAN_POINT ( 'NONE',  ( 0.000000000000000000, 0.000000000000000000, 0.000000000000000000 ) ) ;
#787 = EDGE_CURVE ( 'NONE', #564, #798, #65, .T. ) ;
#788 = AXIS2_PLACEMENT_3D ( 'NONE', #152, #790, #552 ) ;
#789 = PRODUCT_DEFINITION_FORMATION_WITH_SPECIFIED_SOURCE ( '任何', '', #656, .NOT_KNOWN. ) ;
#790 = DIRECTION ( 'NONE',  ( -1.224646799147353207E-16, 1.000000000000000000, 1.487096486582536912E-32 ) ) ;
#791 = FILL_AREA_STYLE_COLOUR ( '', #707 ) ;
#792 = VERTEX_POINT ( 'NONE', #528 ) ;
#793 =( NAMED_UNIT ( * ) PLANE_ANGLE_UNIT ( ) SI_UNIT ( $, .RADIAN. ) );
#794 = DIRECTION ( 'NONE',  ( -1.214306433183764720E-16, -0.000000000000000000, -1.000000000000000000 ) ) ;
#795 =( NAMED_UNIT ( * ) PLANE_ANGLE_UNIT ( ) SI_UNIT ( $, .RADIAN. ) );
#796 = AXIS2_PLACEMENT_3D ( 'NONE', #103, #414, #741 ) ;
#797 = DIRECTION ( 'NONE',  ( -1.214306433183764720E-16, -0.000000000000000000, -1.000000000000000000 ) ) ;
#798 = VERTEX_POINT ( 'NONE', #849 ) ;
#799 = CYLINDRICAL_SURFACE ( 'NONE', #755, 0.9000000000000000222 ) ;
#800 = DIRECTION ( 'NONE',  ( -1.214306433183764720E-16, -0.000000000000000000, -1.000000000000000000 ) ) ;
#801 = SURFACE_STYLE_FILL_AREA ( #173 ) ;
#802 = EDGE_CURVE ( 'NONE', #181, #913, #541, .T. ) ;
#803 = SURFACE_SIDE_STYLE ('',( #481 ) ) ;
#804 = VERTEX_POINT ( 'NONE', #619 ) ;
#805 = CARTESIAN_POINT ( 'NONE',  ( -0.7999999999999999334, 1.040949779275250140E-16, 9.486769009248163798E-17 ) ) ;
#806 = DIRECTION ( 'NONE',  ( -1.214306433183764720E-16, -0.000000000000000000, -1.000000000000000000 ) ) ;
#807 = CARTESIAN_POINT ( 'NONE',  ( 1.214306433183761731E-17, 0.000000000000000000, 0.09999999999999974187 ) ) ;
#808 = PRESENTATION_LAYER_ASSIGNMENT (  '', '', ( #678 ) ) ;
#809 = PRESENTATION_STYLE_ASSIGNMENT (( #484 ) ) ;
#810 = AXIS2_PLACEMENT_3D ( 'NONE', #266, #411, #337 ) ;
#811 = CARTESIAN_POINT ( 'NONE',  ( 4.735795089416682258E-17, 0.000000000000000000, 0.3900000000000000133 ) ) ;
#812 = DIRECTION ( 'NONE',  ( -1.214306433183764720E-16, -0.000000000000000000, -1.000000000000000000 ) ) ;
#813 = DIRECTION ( 'NONE',  ( -1.000000000000000000, 0.000000000000000000, 0.000000000000000000 ) ) ;
#814 = EDGE_CURVE ( 'NONE', #924, #994, #349, .T. ) ;
#815 = COLOUR_RGB ( '',0.9686274509803921573, 0.8784313725490195957, 0.5999999999999999778 ) ;
#816 = DIRECTION ( 'NONE',  ( -1.000000000000000000, 0.000000000000000000, 1.204669080539449344E-16 ) ) ;
#817 = ADVANCED_FACE ( 'NONE', ( #403 ), #327, .T. ) ;
#818 = PRESENTATION_STYLE_ASSIGNMENT (( #733 ) ) ;
#819 = DIRECTION ( 'NONE',  ( 0.000000000000000000, 0.000000000000000000, -1.000000000000000000 ) ) ;
#820 = AXIS2_PLACEMENT_3D ( 'NONE', #164, #84, #75 ) ;
#821 = ORIENTED_EDGE ( 'NONE', *, *, #814, .T. ) ;
#822 = CIRCLE ( 'NONE', #17, 0.6500000000000000222 ) ;
#823 = CARTESIAN_POINT ( 'NONE',  ( 1.942890293094023946E-16, 0.000000000000000000, 1.600000000000000311 ) ) ;
#824 =( LENGTH_UNIT ( ) NAMED_UNIT ( * ) SI_UNIT ( .MILLI., .METRE. ) );
#825 = AXIS2_PLACEMENT_3D ( 'NONE', #471, #165, #402 ) ;
#826 = FACE_OUTER_BOUND ( 'NONE', #772, .T. ) ;
#827 = PRESENTATION_LAYER_ASSIGNMENT (  '', '', ( #416 ) ) ;
#828 = APPLICATION_PROTOCOL_DEFINITION ( 'draft international standard', 'automotive_design', 1998, #644 ) ;
#829 = ORIENTED_EDGE ( 'NONE', *, *, #407, .T. ) ;
#830 = EDGE_CURVE ( 'NONE', #780, #303, #934, .T. ) ;
#831 = ORIENTED_EDGE ( 'NONE', *, *, #257, .T. ) ;
#832 = DIRECTION ( 'NONE',  ( -1.214306433183764720E-16, 0.000000000000000000, -1.000000000000000000 ) ) ;
#833 = DIRECTION ( 'NONE',  ( 0.000000000000000000, 0.000000000000000000, 1.000000000000000000 ) ) ;
#834 =( LENGTH_UNIT ( ) NAMED_UNIT ( * ) SI_UNIT ( .MILLI., .METRE. ) );
#835 = COLOUR_RGB ( '',0.9686274509803921573, 0.8784313725490195957, 0.5999999999999999778 ) ;
#836 = UNCERTAINTY_MEASURE_WITH_UNIT (LENGTH_MEASURE( 1.000000000000000082E-05 ), #343, 'distance_accuracy_value', 'NONE');
#837 = ORIENTED_EDGE ( 'NONE', *, *, #898, .T. ) ;
#838 = MECHANICAL_DESIGN_GEOMETRIC_PRESENTATION_REPRESENTATION (  '', ( #271 ), #645 ) ;
#839 = DIRECTION ( 'NONE',  ( -0.7071067811865485719, 8.659560562354947649E-17, 0.7071067811865465735 ) ) ;
#840 = DIRECTION ( 'NONE',  ( -1.000000000000000000, 0.000000000000000000, 0.000000000000000000 ) ) ;
#841 = CARTESIAN_POINT ( 'NONE',  ( 0.8899999999999999023, 1.096058885236881035E-16, 0.3999999999999999112 ) ) ;
#842 = PRODUCT_CONTEXT ( 'NONE', #601, 'mechanical' ) ;
#843 = VERTEX_POINT ( 'NONE', #734 ) ;
#844 = FILL_AREA_STYLE_COLOUR ( '', #884 ) ;
#845 = EDGE_CURVE ( 'NONE', #433, #1, #375, .T. ) ;
#846 = SURFACE_SIDE_STYLE ('',( #998 ) ) ;
#847 = AXIS2_PLACEMENT_3D ( 'NONE', #426, #442, #454 ) ;
#848 = FILL_AREA_STYLE_COLOUR ( '', #815 ) ;
#849 = CARTESIAN_POINT ( 'NONE',  ( 0.6145933147571509547, 7.709198465514039465E-17, 1.472358477984254232 ) ) ;
#850 = DIRECTION ( 'NONE',  ( -0.1490565198950261072, 0.000000000000000000, -0.9888286777176235054 ) ) ;
#851 = SURFACE_STYLE_FILL_AREA ( #180 ) ;
#852 = FILL_AREA_STYLE ('',( #848 ) ) ;
#853 = FACE_OUTER_BOUND ( 'NONE', #43, .T. ) ;
#854 = ORIENTED_EDGE ( 'NONE', *, *, #350, .F. ) ;
#855 = MECHANICAL_DESIGN_GEOMETRIC_PRESENTATION_REPRESENTATION (  '', ( #678 ), #187 ) ;
#856 = AXIS2_PLACEMENT_3D ( 'NONE', #960, #19, #330 ) ;
#857 = DIRECTION ( 'NONE',  ( 1.214306433183764720E-16, 0.000000000000000000, 1.000000000000000000 ) ) ;
#858 = MECHANICAL_DESIGN_GEOMETRIC_PRESENTATION_REPRESENTATION (  '', ( #92 ), #590 ) ;
#859 = ORIENTED_EDGE ( 'NONE', *, *, #587, .F. ) ;
#860 = FILL_AREA_STYLE ('',( #225 ) ) ;
#861 = CIRCLE ( 'NONE', #474, 0.6444143388588116084 ) ;
#862 = FILL_AREA_STYLE_COLOUR ( '', #193 ) ;
#863 = EDGE_CURVE ( 'NONE', #67, #713, #107, .T. ) ;
#864 = ORIENTED_EDGE ( 'NONE', *, *, #1018, .T. ) ;
#865 = FACE_OUTER_BOUND ( 'NONE', #1008, .T. ) ;
#866 = CARTESIAN_POINT ( 'NONE',  ( 2.506389791866638495E-16, 0.000000000000000000, 2.250000000000000000 ) ) ;
#867 =( LENGTH_UNIT ( ) NAMED_UNIT ( * ) SI_UNIT ( .MILLI., .METRE. ) );
#868 = ORIENTED_EDGE ( 'NONE', *, *, #276, .T. ) ;
#869 = SURFACE_STYLE_FILL_AREA ( #549 ) ;
#870 =( GEOMETRIC_REPRESENTATION_CONTEXT ( 3 ) GLOBAL_UNCERTAINTY_ASSIGNED_CONTEXT ( ( #112 ) ) GLOBAL_UNIT_ASSIGNED_CONTEXT ( ( #68, #987, #997 ) ) REPRESENTATION_CONTEXT ( 'NONE', 'WORKASPACE' ) );
#871 = DIRECTION ( 'NONE',  ( -1.214306433183764720E-16, -0.000000000000000000, -1.000000000000000000 ) ) ;
#872 = PRESENTATION_STYLE_ASSIGNMENT (( #256 ) ) ;
#873 = ORIENTED_EDGE ( 'NONE', *, *, #787, .F. ) ;
#874 =( NAMED_UNIT ( * ) SI_UNIT ( $, .STERADIAN. ) SOLID_ANGLE_UNIT ( ) );
#875 = ADVANCED_FACE ( 'NONE', ( #16, #853 ), #784, .T. ) ;
#876 = CARTESIAN_POINT ( 'NONE',  ( 1.722764978462720972E-16, 0.000000000000000000, 1.418723422180873550 ) ) ;
#877 = VERTEX_POINT ( 'NONE', #593 ) ;
#878 = CIRCLE ( 'NONE', #981, 0.3999999999999999667 ) ;
#879 = PLANE ( 'NONE',  #648 ) ;
#880 = LINE ( 'NONE', #717, #893 ) ;
#881 = DIRECTION ( 'NONE',  ( 0.000000000000000000, 0.000000000000000000, -1.000000000000000000 ) ) ;
#882 = PRESENTATION_LAYER_ASSIGNMENT (  '', '', ( #304 ) ) ;
#883 = DIRECTION ( 'NONE',  ( -1.000000000000000000, 0.000000000000000000, 1.204669080539449344E-16 ) ) ;
#884 = COLOUR_RGB ( '',0.9686274509803921573, 0.8784313725490195957, 0.5999999999999999778 ) ;
#885 = EDGE_CURVE ( 'NONE', #924, #877, #878, .T. ) ;
#886 = PRESENTATION_LAYER_ASSIGNMENT (  '', '', ( #700 ) ) ;
#887 = DIRECTION ( 'NONE',  ( -1.214306433183764720E-16, -0.000000000000000000, -1.000000000000000000 ) ) ;
#888 =( NAMED_UNIT ( * ) SI_UNIT ( $, .STERADIAN. ) SOLID_ANGLE_UNIT ( ) );
#889 = EDGE_LOOP ( 'NONE', ( #379, #859, #360, #126 ) ) ;
#890 = LINE ( 'NONE', #182, #177 ) ;
#891 = SURFACE_STYLE_USAGE ( .BOTH. , #580 ) ;
#892 = CARTESIAN_POINT ( 'NONE',  ( 0.6444143388588117194, 7.891799574081014216E-17, 1.274528259947514064 ) ) ;
#893 = VECTOR ( 'NONE', #794, 1000.000000000000000 ) ;
#894 = PRESENTATION_LAYER_ASSIGNMENT (  '', '', ( #392 ) ) ;
#895 = ORIENTED_EDGE ( 'NONE', *, *, #683, .T. ) ;
#896 = MECHANICAL_DESIGN_GEOMETRIC_PRESENTATION_REPRESENTATION (  '', ( #663 ), #302 ) ;
#897 = CONICAL_SURFACE ( 'NONE', #142, 0.6444143388588116084, 0.1496140649059592431 ) ;
#898 = EDGE_CURVE ( 'NONE', #564, #843, #212, .T. ) ;
#899 =( GEOMETRIC_REPRESENTATION_CONTEXT ( 3 ) GLOBAL_UNCERTAINTY_ASSIGNED_CONTEXT ( ( #399 ) ) GLOBAL_UNIT_ASSIGNED_CONTEXT ( ( #15, #795, #249 ) ) REPRESENTATION_CONTEXT ( 'NONE', 'WORKASPACE' ) );
#900 = DIRECTION ( 'NONE',  ( -1.214306433183764720E-16, -0.000000000000000000, -1.000000000000000000 ) ) ;
#901 = UNCERTAINTY_MEASURE_WITH_UNIT (LENGTH_MEASURE( 1.000000000000000082E-05 ), #262, 'distance_accuracy_value', 'NONE');
#902 = AXIS2_PLACEMENT_3D ( 'NONE', #451, #217, #540 ) ;
#903 =( NAMED_UNIT ( * ) PLANE_ANGLE_UNIT ( ) SI_UNIT ( $, .RADIAN. ) );
#904 = SURFACE_SIDE_STYLE ('',( #494 ) ) ;
#905 = PRESENTATION_STYLE_ASSIGNMENT (( #673 ) ) ;
#906 = PRESENTATION_STYLE_ASSIGNMENT (( #277 ) ) ;
#907 = DIRECTION ( 'NONE',  ( -1.214306433183764720E-16, -0.000000000000000000, -1.000000000000000000 ) ) ;
#908 = ORIENTED_EDGE ( 'NONE', *, *, #534, .F. ) ;
#909 = SURFACE_STYLE_USAGE ( .BOTH. , #914 ) ;
#910 = SURFACE_STYLE_USAGE ( .BOTH. , #904 ) ;
#911 = DIRECTION ( 'NONE',  ( -1.000000000000000000, 0.000000000000000000, 1.204669080539449344E-16 ) ) ;
#912 = AXIS2_PLACEMENT_3D ( 'NONE', #231, #871, #314 ) ;
#913 = VERTEX_POINT ( 'NONE', #518 ) ;
#914 = SURFACE_SIDE_STYLE ('',( #693 ) ) ;
#915 = DIRECTION ( 'NONE',  ( -1.214306433183764720E-16, -0.000000000000000000, -1.000000000000000000 ) ) ;
#916 = CARTESIAN_POINT ( 'NONE',  ( -0.4099999999999998646, 0.000000000000000000, 1.418723422180873550 ) ) ;
#917 = SURFACE_STYLE_USAGE ( .BOTH. , #51 ) ;
#918 = PRESENTATION_STYLE_ASSIGNMENT (( #40 ) ) ;
#919 = STYLED_ITEM ( 'NONE', ( #364 ), #725 ) ;
#920 = CARTESIAN_POINT ( 'NONE',  ( -0.7999999999999999334, 9.797174393178824918E-17, 9.486769009248163798E-17 ) ) ;
#921 = PRESENTATION_STYLE_ASSIGNMENT (( #909 ) ) ;
#922 = FACE_OUTER_BOUND ( 'NONE', #766, .T. ) ;
#923 = FACE_OUTER_BOUND ( 'NONE', #224, .T. ) ;
#924 = VERTEX_POINT ( 'NONE', #132 ) ;
#925 = DIRECTION ( 'NONE',  ( -1.214306433183764720E-16, -0.000000000000000000, -1.000000000000000000 ) ) ;
#926 = AXIS2_PLACEMENT_3D ( 'NONE', #168, #333, #643 ) ;
#927 = ORIENTED_EDGE ( 'NONE', *, *, #419, .F. ) ;
#928 = STYLED_ITEM ( 'NONE', ( #694 ), #62 ) ;
#929 = PRESENTATION_LAYER_ASSIGNMENT (  '', '', ( #521 ) ) ;
#930 = EDGE_CURVE ( 'NONE', #341, #913, #290, .T. ) ;
#931 = CARTESIAN_POINT ( 'NONE',  ( 4.735795089416682258E-17, 0.000000000000000000, 0.3900000000000000133 ) ) ;
#932 = EDGE_LOOP ( 'NONE', ( #984, #763, #478, #690 ) ) ;
#933 = FILL_AREA_STYLE_COLOUR ( '', #501 ) ;
#934 = CIRCLE ( 'NONE', #489, 0.9000000000000000222 ) ;
#935 = DIRECTION ( 'NONE',  ( -1.000000000000000000, 0.000000000000000000, 0.000000000000000000 ) ) ;
#936 = VERTEX_POINT ( 'NONE', #207 ) ;
#937 = CARTESIAN_POINT ( 'NONE',  ( 0.000000000000000000, 0.000000000000000000, 0.000000000000000000 ) ) ;
#938 = DIRECTION ( 'NONE',  ( -1.000000000000000000, 0.000000000000000000, 1.214306433183764720E-16 ) ) ;
#939 =( NAMED_UNIT ( * ) PLANE_ANGLE_UNIT ( ) SI_UNIT ( $, .RADIAN. ) );
#940 = ORIENTED_EDGE ( 'NONE', *, *, #787, .T. ) ;
#941 = ADVANCED_FACE ( 'NONE', ( #775, #143 ), #770, .T. ) ;
#942 = AXIS2_PLACEMENT_3D ( 'NONE', #659, #401, #479 ) ;
#943 = MECHANICAL_DESIGN_GEOMETRIC_PRESENTATION_REPRESENTATION (  '', ( #553 ), #136 ) ;
#944 = FACE_OUTER_BOUND ( 'NONE', #437, .T. ) ;
#945 = FACE_OUTER_BOUND ( 'NONE', #723, .T. ) ;
#946 =( GEOMETRIC_REPRESENTATION_CONTEXT ( 3 ) GLOBAL_UNCERTAINTY_ASSIGNED_CONTEXT ( ( #356 ) ) GLOBAL_UNIT_ASSIGNED_CONTEXT ( ( #781, #903, #874 ) ) REPRESENTATION_CONTEXT ( 'NONE', 'WORKASPACE' ) );
#947 = FILL_AREA_STYLE_COLOUR ( '', #87 ) ;
#948 = ORIENTED_EDGE ( 'NONE', *, *, #244, .T. ) ;
#949 =( NAMED_UNIT ( * ) SI_UNIT ( $, .STERADIAN. ) SOLID_ANGLE_UNIT ( ) );
#950 = STYLED_ITEM ( 'NONE', ( #957 ), #817 ) ;
#951 = EDGE_LOOP ( 'NONE', ( #429, #895 ) ) ;
#952 = CARTESIAN_POINT ( 'NONE',  ( 1.547667865328775928E-16, 0.000000000000000000, 1.274528259947514064 ) ) ;
#953 =( NAMED_UNIT ( * ) PLANE_ANGLE_UNIT ( ) SI_UNIT ( $, .RADIAN. ) );
#954 =( NAMED_UNIT ( * ) SI_UNIT ( $, .STERADIAN. ) SOLID_ANGLE_UNIT ( ) );
#955 = MECHANICAL_DESIGN_GEOMETRIC_PRESENTATION_REPRESENTATION (  '', ( #569 ), #946 ) ;
#956 = FILL_AREA_STYLE ('',( #352 ) ) ;
#957 = PRESENTATION_STYLE_ASSIGNMENT (( #223 ) ) ;
#958 = EDGE_CURVE ( 'NONE', #468, #63, #209, .T. ) ;
#959 = AXIS2_PLACEMENT_3D ( 'NONE', #230, #264, #406 ) ;
#960 = CARTESIAN_POINT ( 'NONE',  ( 4.857225732735059248E-17, 0.000000000000000000, 0.4000000000000000222 ) ) ;
#961 = UNCERTAINTY_MEASURE_WITH_UNIT (LENGTH_MEASURE( 1.000000000000000082E-05 ), #461, 'distance_accuracy_value', 'NONE');
#962 = DIRECTION ( 'NONE',  ( -1.000000000000000000, 0.000000000000000000, 1.214306433183764720E-16 ) ) ;
#963 = DIRECTION ( 'NONE',  ( -1.000000000000000000, 0.000000000000000000, 1.214306433183764720E-16 ) ) ;
#964 = PRESENTATION_STYLE_ASSIGNMENT (( #604 ) ) ;
#965 = ADVANCED_FACE ( 'NONE', ( #291 ), #200, .T. ) ;
#966 = CARTESIAN_POINT ( 'NONE',  ( -0.4099999999999998646, 0.000000000000000000, 1.600000000000000089 ) ) ;
#967 = CIRCLE ( 'NONE', #135, 0.4000000000000000222 ) ;
#968 = AXIS2_PLACEMENT_3D ( 'NONE', #237, #490, #816 ) ;
#969 = FILL_AREA_STYLE_COLOUR ( '', #138 ) ;
#970 = AXIS2_PLACEMENT_3D ( 'NONE', #515, #117, #199 ) ;
#971 = DIRECTION ( 'NONE',  ( -1.000000000000000000, 0.000000000000000000, 1.214306433183764720E-16 ) ) ;
#972 = FILL_AREA_STYLE_COLOUR ( '', #1012 ) ;
#973 = PRESENTATION_LAYER_ASSIGNMENT (  '', '', ( #397 ) ) ;
#974 = SURFACE_STYLE_USAGE ( .BOTH. , #42 ) ;
#975 =( LENGTH_UNIT ( ) NAMED_UNIT ( * ) SI_UNIT ( .MILLI., .METRE. ) );
#976 = MECHANICAL_DESIGN_GEOMETRIC_PRESENTATION_REPRESENTATION (  '', ( #453 ), #558 ) ;
#977 =( NAMED_UNIT ( * ) SI_UNIT ( $, .STERADIAN. ) SOLID_ANGLE_UNIT ( ) );
#978 =( LENGTH_UNIT ( ) NAMED_UNIT ( * ) SI_UNIT ( .MILLI., .METRE. ) );
#979 = UNCERTAINTY_MEASURE_WITH_UNIT (LENGTH_MEASURE( 1.000000000000000082E-05 ), #764, 'distance_accuracy_value', 'NONE');
#980 = AXIS2_PLACEMENT_3D ( 'NONE', #421, #907, #195 ) ;
#981 = AXIS2_PLACEMENT_3D ( 'NONE', #767, #602, #367 ) ;
#982 = DIRECTION ( 'NONE',  ( 1.214306433183764720E-16, 0.000000000000000000, 1.000000000000000000 ) ) ;
#983 =( NAMED_UNIT ( * ) SI_UNIT ( $, .STERADIAN. ) SOLID_ANGLE_UNIT ( ) );
#984 = ORIENTED_EDGE ( 'NONE', *, *, #504, .F. ) ;
#985 = SURFACE_STYLE_FILL_AREA ( #439 ) ;
#986 = ORIENTED_EDGE ( 'NONE', *, *, #930, .T. ) ;
#987 =( NAMED_UNIT ( * ) PLANE_ANGLE_UNIT ( ) SI_UNIT ( $, .RADIAN. ) );
#988 = CARTESIAN_POINT ( 'NONE',  ( 0.000000000000000000, 0.000000000000000000, 0.000000000000000000 ) ) ;
#989 = SURFACE_STYLE_FILL_AREA ( #53 ) ;
#990 = TOROIDAL_SURFACE ( 'NONE', #497, 0.1499999999999999944, 0.5000000000000000000 ) ;
#991 = DIRECTION ( 'NONE',  ( -1.214306433183764720E-16, -0.000000000000000000, -1.000000000000000000 ) ) ;
#992 = EDGE_CURVE ( 'NONE', #760, #843, #384, .T. ) ;
#993 = AXIS2_PLACEMENT_3D ( 'NONE', #64, #773, #58 ) ;
#994 = VERTEX_POINT ( 'NONE', #529 ) ;
#995 = COLOUR_RGB ( '',0.9686274509803921573, 0.8784313725490195957, 0.5999999999999999778 ) ;
#996 = CARTESIAN_POINT ( 'NONE',  ( -0.6444143388588114973, 0.000000000000000000, 1.274528259947514064 ) ) ;
#997 =( NAMED_UNIT ( * ) SI_UNIT ( $, .STERADIAN. ) SOLID_ANGLE_UNIT ( ) );
#998 = SURFACE_STYLE_FILL_AREA ( #208 ) ;
#999 = PRESENTATION_LAYER_ASSIGNMENT (  '', '', ( #274 ) ) ;
#1000 = DIRECTION ( 'NONE',  ( -1.000000000000000000, 0.000000000000000000, 0.000000000000000000 ) ) ;
#1001 = CARTESIAN_POINT ( 'NONE',  ( -2.764762713133978310E-34, 0.000000000000000000, -2.276824562219525415E-18 ) ) ;
#1002 = ORIENTED_EDGE ( 'NONE', *, *, #830, .F. ) ;
#1003 =( GEOMETRIC_REPRESENTATION_CONTEXT ( 3 ) GLOBAL_UNCERTAINTY_ASSIGNED_CONTEXT ( ( #432 ) ) GLOBAL_UNIT_ASSIGNED_CONTEXT ( ( #978, #424, #765 ) ) REPRESENTATION_CONTEXT ( 'NONE', 'WORKASPACE' ) );
#1004 = DIRECTION ( 'NONE',  ( -1.000000000000000000, 0.000000000000000000, 0.000000000000000000 ) ) ;
#1005 =( LENGTH_UNIT ( ) NAMED_UNIT ( * ) SI_UNIT ( .MILLI., .METRE. ) );
#1006 = VECTOR ( 'NONE', #839, 1000.000000000000000 ) ;
#1007 = DIRECTION ( 'NONE',  ( -1.214306433183764720E-16, -0.000000000000000000, -1.000000000000000000 ) ) ;
#1008 = EDGE_LOOP ( 'NONE', ( #927, #313, #868, #615 ) ) ;
#1009 = SURFACE_SIDE_STYLE ('',( #372 ) ) ;
#1010 = EDGE_CURVE ( 'NONE', #843, #785, #226, .T. ) ;
#1011 = SURFACE_SIDE_STYLE ('',( #851 ) ) ;
#1012 = COLOUR_RGB ( '',0.9686274509803921573, 0.8784313725490195957, 0.5999999999999999778 ) ;
#1013 = EDGE_LOOP ( 'NONE', ( #280, #394, #873, #157 ) ) ;
#1014 = COLOUR_RGB ( '',0.9686274509803921573, 0.8784313725490195957, 0.5999999999999999778 ) ;
#1015 = ORIENTED_EDGE ( 'NONE', *, *, #257, .F. ) ;
#1016 = DIRECTION ( 'NONE',  ( -1.000000000000000000, 0.000000000000000000, 1.214306433183764720E-16 ) ) ;
#1017 = CARTESIAN_POINT ( 'NONE',  ( -0.9000000000000000222, 0.000000000000000000, 1.092875789865388223E-16 ) ) ;
#1018 = EDGE_CURVE ( 'NONE', #877, #709, #503, .T. ) ;
#1019 = CARTESIAN_POINT ( 'NONE',  ( -0.9000000000000000222, 0.000000000000000000, 0.3900000000000001243 ) ) ;
#1020 = MECHANICAL_DESIGN_GEOMETRIC_PRESENTATION_REPRESENTATION (  '', ( #440 ), #620 ) ;
ENDSEC;
END-ISO-10303-21;
